# 3ds Max Wavefront OBJ Exporter v0.97b - (c)2007 guruware
# File Created: 25.05.2017 20:40:52

mtllib DB.mtl

#
# object Cylinder001
#

v  0.1794 0.0000 0.0651
v  0.1449 0.0000 0.1248
v  -0.0072 0.0000 -0.0028
v  0.1913 0.0000 -0.0028
v  0.1794 0.0000 -0.0708
v  0.1794 0.0255 -0.0708
v  0.1913 0.0255 -0.0028
v  0.1449 0.0000 -0.1305
v  0.1449 0.0255 -0.1305
v  0.0921 0.0000 -0.1748
v  0.0921 0.0255 -0.1748
v  0.0272 0.0000 -0.1984
v  0.0272 0.0255 -0.1984
v  -0.0417 0.0000 -0.1984
v  -0.0417 0.0255 -0.1984
v  -0.1065 0.0000 -0.1748
v  -0.1065 0.0255 -0.1748
v  -0.1594 0.0000 -0.1305
v  -0.1594 0.0255 -0.1305
v  -0.1938 0.0000 -0.0708
v  -0.1938 0.0255 -0.0708
v  -0.2058 0.0000 -0.0028
v  -0.2058 0.0255 -0.0028
v  -0.1938 0.0000 0.0651
v  -0.1938 0.0255 0.0651
v  -0.1594 0.0000 0.1248
v  -0.1594 0.0255 0.1248
v  -0.1065 0.0000 0.1691
v  -0.1065 0.0255 0.1691
v  -0.0417 0.0000 0.1927
v  -0.0417 0.0255 0.1927
v  0.0272 0.0000 0.1927
v  0.0272 0.0255 0.1927
v  0.0921 0.0000 0.1691
v  0.0921 0.0255 0.1691
v  0.1449 0.0255 0.1248
v  0.1794 0.0255 0.0651
v  0.0415 0.1000 -0.0028
v  0.0385 0.1000 -0.0195
v  -0.0072 0.1000 -0.0028
v  0.0741 0.0255 -0.0620
v  0.0793 0.0255 -0.0028
v  0.0590 0.0255 -0.1140
v  0.0360 0.0255 -0.1526
v  0.0078 0.0255 -0.1731
v  -0.0223 0.0255 -0.1731
v  -0.0505 0.0255 -0.1526
v  -0.0735 0.0255 -0.1140
v  -0.0885 0.0255 -0.0620
v  -0.0938 0.0255 -0.0028
v  -0.0885 0.0255 0.0563
v  -0.0735 0.0255 0.1083
v  -0.0505 0.0255 0.1469
v  -0.0223 0.0255 0.1674
v  0.0078 0.0255 0.1674
v  0.0360 0.0255 0.1469
v  0.0590 0.0255 0.1083
v  0.0741 0.0255 0.0563
v  0.0741 0.0526 -0.0620
v  0.0793 0.0526 -0.0028
v  0.0590 0.0526 -0.1140
v  0.0360 0.0526 -0.1526
v  0.0078 0.0526 -0.1731
v  -0.0223 0.0526 -0.1731
v  -0.0505 0.0526 -0.1526
v  -0.0735 0.0526 -0.1140
v  -0.0885 0.0526 -0.0620
v  -0.0938 0.0526 -0.0028
v  -0.0885 0.0526 0.0563
v  -0.0735 0.0526 0.1083
v  -0.0505 0.0526 0.1469
v  -0.0223 0.0526 0.1674
v  0.0078 0.0526 0.1674
v  0.0360 0.0526 0.1469
v  0.0590 0.0526 0.1083
v  0.0741 0.0526 0.0563
v  0.0467 0.0526 -0.0421
v  0.0502 0.0526 -0.0028
v  0.0368 0.0526 -0.0766
v  0.0215 0.0526 -0.1022
v  0.0027 0.0526 -0.1159
v  -0.0172 0.0526 -0.1159
v  -0.0360 0.0526 -0.1022
v  -0.0512 0.0526 -0.0766
v  -0.0612 0.0526 -0.0421
v  -0.0647 0.0526 -0.0028
v  -0.0612 0.0526 0.0364
v  -0.0512 0.0526 0.0709
v  -0.0360 0.0526 0.0966
v  -0.0172 0.0526 0.1102
v  0.0027 0.0526 0.1102
v  0.0215 0.0526 0.0966
v  0.0368 0.0526 0.0709
v  0.0467 0.0526 0.0364
v  0.0467 0.0450 -0.0421
v  0.0502 0.0450 -0.0028
v  0.0368 0.0450 -0.0766
v  0.0215 0.0450 -0.1022
v  0.0027 0.0450 -0.1159
v  -0.0172 0.0450 -0.1159
v  -0.0360 0.0450 -0.1022
v  -0.0512 0.0450 -0.0766
v  -0.0612 0.0450 -0.0421
v  -0.0647 0.0450 -0.0028
v  -0.0612 0.0450 0.0364
v  -0.0512 0.0450 0.0709
v  -0.0360 0.0450 0.0966
v  -0.0172 0.0450 0.1102
v  0.0027 0.0450 0.1102
v  0.0215 0.0450 0.0966
v  0.0368 0.0450 0.0709
v  0.0467 0.0450 0.0364
v  0.0385 0.0450 -0.0195
v  0.0415 0.0450 -0.0028
v  0.0301 0.0450 -0.0341
v  0.0171 0.0450 -0.0450
v  0.0012 0.0450 -0.0508
v  -0.0157 0.0450 -0.0508
v  -0.0316 0.0450 -0.0450
v  -0.0445 0.0450 -0.0341
v  -0.0530 0.0450 -0.0195
v  -0.0559 0.0450 -0.0028
v  -0.0530 0.0450 0.0138
v  -0.0445 0.0450 0.0285
v  -0.0316 0.0450 0.0393
v  -0.0157 0.0450 0.0451
v  0.0012 0.0450 0.0451
v  0.0171 0.0450 0.0393
v  0.0301 0.0450 0.0285
v  0.0385 0.0450 0.0138
v  0.0301 0.1000 -0.0341
v  0.0171 0.1000 -0.0450
v  0.0012 0.1000 -0.0508
v  -0.0157 0.1000 -0.0508
v  -0.0316 0.1000 -0.0450
v  -0.0445 0.1000 -0.0341
v  -0.0530 0.1000 -0.0195
v  -0.0559 0.1000 -0.0028
v  -0.0530 0.1000 0.0138
v  -0.0445 0.1000 0.0285
v  -0.0316 0.1000 0.0393
v  -0.0157 0.1000 0.0451
v  0.0012 0.1000 0.0451
v  0.0171 0.1000 0.0393
v  0.0301 0.1000 0.0285
v  0.0385 0.1000 0.0138
# 146 vertices

vn 0.6975 -0.6701 0.2539
vn 0.5686 -0.6701 0.4772
vn 0.0000 -1.0000 -0.0000
vn 0.7423 -0.6701 0.0000
vn 0.6975 -0.6701 -0.2539
vn 0.6975 0.6701 -0.2539
vn 0.7423 0.6701 0.0000
vn 0.5686 -0.6701 -0.4771
vn 0.5686 0.6701 -0.4771
vn 0.3711 -0.6701 -0.6429
vn 0.3711 0.6701 -0.6429
vn 0.1289 -0.6700 -0.7311
vn 0.1289 0.6700 -0.7311
vn -0.1289 -0.6701 -0.7310
vn -0.1289 0.6701 -0.7310
vn -0.3712 -0.6701 -0.6428
vn -0.3712 0.6701 -0.6428
vn -0.5687 -0.6700 -0.4772
vn -0.5687 0.6700 -0.4772
vn -0.6976 -0.6700 -0.2539
vn -0.6976 0.6700 -0.2539
vn -0.7423 -0.6700 -0.0000
vn -0.7423 0.6700 -0.0000
vn -0.6976 -0.6700 0.2539
vn -0.6976 0.6700 0.2539
vn -0.5687 -0.6700 0.4772
vn -0.5687 0.6700 0.4772
vn -0.3712 -0.6700 0.6429
vn -0.3712 0.6700 0.6429
vn -0.1289 -0.6700 0.7311
vn -0.1289 0.6700 0.7311
vn 0.1289 -0.6700 0.7311
vn 0.1289 0.6700 0.7311
vn 0.3712 -0.6700 0.6429
vn 0.3712 0.6700 0.6429
vn 0.5686 0.6701 0.4772
vn 0.6975 0.6701 0.2539
vn 0.7423 0.6700 0.0000
vn 0.6976 0.6700 -0.2539
vn 0.0000 1.0000 -0.0000
vn 0.6723 0.7296 -0.1256
vn 0.6861 0.7275 0.0000
vn 0.6199 0.7371 -0.2691
vn 0.4841 0.7552 -0.4419
vn 0.1921 0.7838 -0.5906
vn -0.1921 0.7838 -0.5906
vn -0.4841 0.7552 -0.4419
vn -0.6199 0.7371 -0.2691
vn -0.6723 0.7295 -0.1256
vn -0.6861 0.7275 0.0000
vn -0.6723 0.7295 0.1256
vn -0.6200 0.7371 0.2691
vn -0.4841 0.7552 0.4419
vn -0.1921 0.7838 0.5906
vn 0.1921 0.7838 0.5906
vn 0.4841 0.7552 0.4419
vn 0.6199 0.7371 0.2691
vn 0.6723 0.7295 0.1256
vn 0.7151 0.6861 -0.1336
vn 0.7258 0.6879 0.0000
vn 0.6730 0.6795 -0.2921
vn 0.5519 0.6646 -0.5037
vn 0.2367 0.6437 -0.7278
vn -0.2367 0.6437 -0.7278
vn -0.5518 0.6646 -0.5037
vn -0.6731 0.6795 -0.2921
vn -0.7152 0.6861 -0.1336
vn -0.7258 0.6879 0.0000
vn -0.7152 0.6861 0.1336
vn -0.6731 0.6794 0.2921
vn -0.5519 0.6646 0.5037
vn -0.2367 0.6437 0.7278
vn 0.2367 0.6437 0.7278
vn 0.5519 0.6646 0.5037
vn 0.6730 0.6795 0.2921
vn 0.7152 0.6861 0.1336
vn -0.6861 0.7275 -0.0000
vn 0.6200 0.7371 0.2691
vn 0.6723 0.7295 -0.1256
vn 0.6200 0.7371 -0.2691
vn -0.6200 0.7371 -0.2691
vn -0.6724 0.7295 -0.1256
vn -0.7258 0.6879 -0.0000
vn 0.6731 0.6794 0.2921
vn 0.7152 0.6861 -0.1336
vn 0.6731 0.6794 -0.2921
vn -0.5519 0.6646 -0.5037
vn -0.6731 0.6794 -0.2921
vn -0.7152 0.6860 -0.1336
vn 0.6233 0.7484 -0.2269
vn 0.6633 0.7484 0.0000
vn 0.5081 0.7484 -0.4264
vn 0.3316 0.7484 -0.5744
vn 0.1152 0.7484 -0.6532
vn -0.1152 0.7484 -0.6532
vn -0.3316 0.7484 -0.5744
vn -0.5081 0.7484 -0.4264
vn -0.6233 0.7484 -0.2269
vn -0.6633 0.7484 -0.0000
vn -0.6232 0.7484 0.2269
vn -0.5081 0.7484 0.4264
vn -0.3316 0.7484 0.5744
vn -0.1152 0.7484 0.6532
vn 0.1152 0.7484 0.6532
vn 0.3316 0.7484 0.5744
vn 0.5081 0.7484 0.4263
vn 0.6233 0.7484 0.2269
vn 0.5687 0.6700 -0.4772
vn 0.3712 0.6701 -0.6428
vn 0.1289 0.6701 -0.7310
vn -0.1289 0.6700 -0.7311
vn -0.3712 0.6700 -0.6429
vn -0.7423 0.6701 -0.0000
vn -0.6975 0.6701 0.2539
vn 0.1289 0.6701 0.7310
vn 0.3711 0.6701 0.6428
vn 0.5686 0.6701 0.4771
vn 0.6976 0.6700 0.2539
# 118 vertex normals

vt 0.1408 0.4672 0.0000
vt 0.0765 0.4133 0.0000
vt 0.2616 0.2580 0.0000
vt 0.5958 0.9322 0.0000
vt 0.6797 0.9322 0.0000
vt 0.6797 0.9633 0.0000
vt 0.5958 0.9633 0.0000
vt 0.7637 0.9322 0.0000
vt 0.7637 0.9633 0.0000
vt 0.5288 0.0888 0.0000
vt 0.6128 0.0888 0.0000
vt 0.6128 0.1198 0.0000
vt 0.5288 0.1198 0.0000
vt 0.6967 0.0888 0.0000
vt 0.6967 0.1198 0.0000
vt 0.7806 0.0888 0.0000
vt 0.7806 0.1198 0.0000
vt 0.8645 0.0888 0.0000
vt 0.8645 0.1198 0.0000
vt 0.9484 0.0888 0.0000
vt 0.9484 0.1198 0.0000
vt 0.0383 0.5655 0.0000
vt 0.1223 0.5655 0.0000
vt 0.1223 0.5966 0.0000
vt 0.0383 0.5965 0.0000
vt 0.2062 0.5655 0.0000
vt 0.2062 0.5966 0.0000
vt 0.2901 0.5655 0.0000
vt 0.2901 0.5966 0.0000
vt 0.3740 0.5655 0.0000
vt 0.3740 0.5965 0.0000
vt 0.5288 0.0200 0.0000
vt 0.6128 0.0200 0.0000
vt 0.6128 0.0511 0.0000
vt 0.5288 0.0510 0.0000
vt 0.6967 0.0200 0.0000
vt 0.6967 0.0511 0.0000
vt 0.7806 0.0201 0.0000
vt 0.7806 0.0511 0.0000
vt 0.8645 0.0200 0.0000
vt 0.8645 0.0511 0.0000
vt 0.9484 0.0200 0.0000
vt 0.9484 0.0510 0.0000
vt 0.4280 0.9322 0.0000
vt 0.5119 0.9322 0.0000
vt 0.5119 0.9633 0.0000
vt 0.4280 0.9633 0.0000
vt 0.7016 0.8151 0.0000
vt 0.6822 0.8081 0.0000
vt 0.7118 0.7568 0.0000
vt 0.7803 0.1621 0.0000
vt 0.8592 0.1908 0.0000
vt 0.8264 0.3151 0.0000
vt 0.7567 0.2964 0.0000
vt 0.9235 0.2447 0.0000
vt 0.8856 0.3441 0.0000
vt 0.9654 0.3174 0.0000
vt 0.9269 0.3799 0.0000
vt 0.9800 0.4001 0.0000
vt 0.9456 0.4180 0.0000
vt 0.9654 0.4827 0.0000
vt 0.9392 0.4540 0.0000
vt 0.9235 0.5554 0.0000
vt 0.9087 0.4835 0.0000
vt 0.8592 0.6093 0.0000
vt 0.8575 0.5030 0.0000
vt 0.7803 0.6380 0.0000
vt 0.7921 0.5100 0.0000
vt 0.6964 0.6380 0.0000
vt 0.7201 0.5037 0.0000
vt 0.6176 0.6093 0.0000
vt 0.6503 0.4850 0.0000
vt 0.5533 0.5554 0.0000
vt 0.5912 0.4560 0.0000
vt 0.5113 0.4827 0.0000
vt 0.5498 0.4203 0.0000
vt 0.4967 0.4001 0.0000
vt 0.5312 0.3821 0.0000
vt 0.5113 0.3174 0.0000
vt 0.5375 0.3461 0.0000
vt 0.5533 0.2447 0.0000
vt 0.5681 0.3166 0.0000
vt 0.6176 0.1908 0.0000
vt 0.6192 0.2972 0.0000
vt 0.6964 0.1621 0.0000
vt 0.6847 0.2901 0.0000
vt 0.2311 0.6297 0.0000
vt 0.3034 0.6297 0.0000
vt 0.3034 0.6627 0.0000
vt 0.2311 0.6627 0.0000
vt 0.3692 0.6297 0.0000
vt 0.3692 0.6627 0.0000
vt 0.4239 0.6297 0.0000
vt 0.4239 0.6627 0.0000
vt 0.6768 0.3395 0.0000
vt 0.7193 0.3395 0.0000
vt 0.7193 0.3725 0.0000
vt 0.6768 0.3725 0.0000
vt 0.7558 0.3395 0.0000
vt 0.7558 0.3725 0.0000
vt 0.7983 0.3395 0.0000
vt 0.7983 0.3725 0.0000
vt 0.0383 0.6939 0.0000
vt 0.0930 0.6939 0.0000
vt 0.0930 0.7269 0.0000
vt 0.0384 0.7269 0.0000
vt 0.1589 0.6939 0.0000
vt 0.1589 0.7269 0.0000
vt 0.2311 0.6939 0.0000
vt 0.2311 0.7269 0.0000
vt 0.3033 0.6939 0.0000
vt 0.3033 0.7269 0.0000
vt 0.3692 0.6939 0.0000
vt 0.3692 0.7269 0.0000
vt 0.4239 0.6939 0.0000
vt 0.4239 0.7270 0.0000
vt 0.1806 0.8285 0.0000
vt 0.2231 0.8285 0.0000
vt 0.2231 0.8615 0.0000
vt 0.1806 0.8615 0.0000
vt 0.2597 0.8285 0.0000
vt 0.2597 0.8615 0.0000
vt 0.3022 0.8285 0.0000
vt 0.3022 0.8615 0.0000
vt 0.0383 0.6297 0.0000
vt 0.0930 0.6297 0.0000
vt 0.0930 0.6627 0.0000
vt 0.0383 0.6627 0.0000
vt 0.1589 0.6297 0.0000
vt 0.1589 0.6627 0.0000
vt 0.2455 0.9640 0.0000
vt 0.1736 0.9577 0.0000
vt 0.1978 0.9244 0.0000
vt 0.2455 0.9286 0.0000
vt 0.1103 0.9394 0.0000
vt 0.1558 0.9123 0.0000
vt 0.0633 0.9114 0.0000
vt 0.1246 0.8937 0.0000
vt 0.0383 0.8770 0.0000
vt 0.1080 0.8709 0.0000
vt 0.0383 0.8404 0.0000
vt 0.1080 0.8466 0.0000
vt 0.0633 0.8061 0.0000
vt 0.1246 0.8238 0.0000
vt 0.1103 0.7781 0.0000
vt 0.1558 0.8052 0.0000
vt 0.1736 0.7598 0.0000
vt 0.1978 0.7931 0.0000
vt 0.2455 0.7534 0.0000
vt 0.2455 0.7888 0.0000
vt 0.3175 0.7598 0.0000
vt 0.2933 0.7931 0.0000
vt 0.3808 0.7781 0.0000
vt 0.3353 0.8052 0.0000
vt 0.4277 0.8061 0.0000
vt 0.3665 0.8238 0.0000
vt 0.4527 0.8404 0.0000
vt 0.3831 0.8466 0.0000
vt 0.4527 0.8770 0.0000
vt 0.3831 0.8709 0.0000
vt 0.4277 0.9114 0.0000
vt 0.3665 0.8937 0.0000
vt 0.3808 0.9394 0.0000
vt 0.3353 0.9123 0.0000
vt 0.3175 0.9577 0.0000
vt 0.2933 0.9244 0.0000
vt 0.1663 0.5336 0.0000
vt 0.1183 0.5336 0.0000
vt 0.1183 0.5243 0.0000
vt 0.1663 0.5243 0.0000
vt 0.0746 0.5336 0.0000
vt 0.0746 0.5243 0.0000
vt 0.0383 0.5335 0.0000
vt 0.0383 0.5243 0.0000
vt 0.2613 0.8877 0.0000
vt 0.2331 0.8877 0.0000
vt 0.2331 0.8784 0.0000
vt 0.2613 0.8784 0.0000
vt 0.2089 0.8877 0.0000
vt 0.2089 0.8784 0.0000
vt 0.1806 0.8877 0.0000
vt 0.1807 0.8784 0.0000
vt 0.8994 0.6711 0.0000
vt 0.8631 0.6711 0.0000
vt 0.8631 0.6618 0.0000
vt 0.8994 0.6618 0.0000
vt 0.8194 0.6711 0.0000
vt 0.8194 0.6618 0.0000
vt 0.7715 0.6711 0.0000
vt 0.7715 0.6618 0.0000
vt 0.7235 0.6711 0.0000
vt 0.7235 0.6618 0.0000
vt 0.6798 0.6711 0.0000
vt 0.6798 0.6618 0.0000
vt 0.6434 0.6711 0.0000
vt 0.6434 0.6618 0.0000
vt 0.1007 0.0293 0.0000
vt 0.0725 0.0293 0.0000
vt 0.0725 0.0200 0.0000
vt 0.1007 0.0200 0.0000
vt 0.0482 0.0293 0.0000
vt 0.0482 0.0200 0.0000
vt 0.0200 0.0293 0.0000
vt 0.0200 0.0200 0.0000
vt 0.2943 0.5335 0.0000
vt 0.2580 0.5336 0.0000
vt 0.2580 0.5243 0.0000
vt 0.2943 0.5242 0.0000
vt 0.2142 0.5336 0.0000
vt 0.2142 0.5243 0.0000
vt 0.6182 0.7672 0.0000
vt 0.6140 0.8150 0.0000
vt 0.6040 0.7875 0.0000
vt 0.6075 0.7672 0.0000
vt 0.6018 0.8570 0.0000
vt 0.5937 0.8053 0.0000
vt 0.5832 0.8882 0.0000
vt 0.5779 0.8185 0.0000
vt 0.5604 0.9047 0.0000
vt 0.5586 0.8256 0.0000
vt 0.5362 0.9047 0.0000
vt 0.5380 0.8256 0.0000
vt 0.5134 0.8882 0.0000
vt 0.5187 0.8185 0.0000
vt 0.4948 0.8570 0.0000
vt 0.5029 0.8053 0.0000
vt 0.4826 0.8150 0.0000
vt 0.4926 0.7875 0.0000
vt 0.4784 0.7672 0.0000
vt 0.4890 0.7672 0.0000
vt 0.4826 0.7195 0.0000
vt 0.4926 0.7470 0.0000
vt 0.4948 0.6774 0.0000
vt 0.5029 0.7291 0.0000
vt 0.5133 0.6463 0.0000
vt 0.5187 0.7159 0.0000
vt 0.5362 0.6297 0.0000
vt 0.5380 0.7089 0.0000
vt 0.5604 0.6297 0.0000
vt 0.5586 0.7089 0.0000
vt 0.5832 0.6463 0.0000
vt 0.5779 0.7159 0.0000
vt 0.6018 0.6774 0.0000
vt 0.5937 0.7291 0.0000
vt 0.6140 0.7195 0.0000
vt 0.6040 0.7470 0.0000
vt 0.8038 0.8130 0.0000
vt 0.8244 0.8130 0.0000
vt 0.8243 0.8799 0.0000
vt 0.8038 0.8799 0.0000
vt 0.8449 0.8130 0.0000
vt 0.8449 0.8799 0.0000
vt 0.7947 0.7076 0.0000
vt 0.8153 0.7076 0.0000
vt 0.8153 0.7745 0.0000
vt 0.7947 0.7745 0.0000
vt 0.8359 0.7076 0.0000
vt 0.8359 0.7745 0.0000
vt 0.8564 0.7076 0.0000
vt 0.8564 0.7745 0.0000
vt 0.8770 0.7076 0.0000
vt 0.8770 0.7745 0.0000
vt 0.8976 0.7076 0.0000
vt 0.8976 0.7745 0.0000
vt 0.6434 0.8405 0.0000
vt 0.6640 0.8405 0.0000
vt 0.6640 0.9074 0.0000
vt 0.6434 0.9074 0.0000
vt 0.6846 0.8405 0.0000
vt 0.6846 0.9074 0.0000
vt 0.7052 0.8405 0.0000
vt 0.7052 0.9074 0.0000
vt 0.7257 0.8406 0.0000
vt 0.7257 0.9074 0.0000
vt 0.6768 0.3894 0.0000
vt 0.6974 0.3894 0.0000
vt 0.6974 0.4563 0.0000
vt 0.6768 0.4563 0.0000
vt 0.7180 0.3894 0.0000
vt 0.7179 0.4563 0.0000
vt 0.7385 0.3894 0.0000
vt 0.7385 0.4563 0.0000
vt 0.7591 0.3894 0.0000
vt 0.7591 0.4563 0.0000
vt 0.7797 0.3894 0.0000
vt 0.7797 0.4563 0.0000
vt 0.7626 0.8130 0.0000
vt 0.7832 0.8130 0.0000
vt 0.7832 0.8799 0.0000
vt 0.7626 0.8799 0.0000
vt 0.7415 0.7055 0.0000
vt 0.7572 0.7187 0.0000
vt 0.6665 0.7949 0.0000
vt 0.6562 0.7771 0.0000
vt 0.7221 0.6984 0.0000
vt 0.7675 0.7365 0.0000
vt 0.7711 0.7568 0.0000
vt 0.6526 0.7568 0.0000
vt 0.6562 0.7365 0.0000
vt 0.7675 0.7771 0.0000
vt 0.7572 0.7949 0.0000
vt 0.6822 0.7055 0.0000
vt 0.7016 0.6984 0.0000
vt 0.7415 0.8081 0.0000
vt 0.6665 0.7187 0.0000
vt 0.7221 0.8151 0.0000
vt 0.3036 0.0200 0.0000
vt 0.3824 0.0487 0.0000
vt 0.4467 0.1026 0.0000
vt 0.4887 0.1753 0.0000
vt 0.2197 0.4959 0.0000
vt 0.0346 0.3406 0.0000
vt 0.0200 0.2580 0.0000
vt 0.5033 0.2580 0.0000
vt 0.4887 0.3406 0.0000
vt 0.0346 0.1753 0.0000
vt 0.0765 0.1026 0.0000
vt 0.4467 0.4133 0.0000
vt 0.3824 0.4672 0.0000
vt 0.2197 0.0200 0.0000
vt 0.3036 0.4959 0.0000
vt 0.1408 0.0487 0.0000
# 322 texture coords

o Cylinder001
g Cylinder001
usemtl wire_115115115
s 1
f 1/1/1 2/2/2 3/3/3 
s 8
f 4/4/4 5/5/5 6/6/6 7/7/7 
f 5/5/5 8/8/8 9/9/9 6/6/6 
f 8/10/8 10/11/10 11/12/11 9/13/9 
f 10/11/10 12/14/12 13/15/13 11/12/11 
f 12/14/12 14/16/14 15/17/15 13/15/13 
f 14/16/14 16/18/16 17/19/17 15/17/15 
f 16/18/16 18/20/18 19/21/19 17/19/17 
f 18/22/18 20/23/20 21/24/21 19/25/19 
f 20/23/20 22/26/22 23/27/23 21/24/21 
f 22/26/22 24/28/24 25/29/25 23/27/23 
f 24/28/24 26/30/26 27/31/27 25/29/25 
f 26/32/26 28/33/28 29/34/29 27/35/27 
f 28/33/28 30/36/30 31/37/31 29/34/29 
f 30/36/30 32/38/32 33/39/33 31/37/31 
f 32/38/32 34/40/34 35/41/35 33/39/33 
f 34/40/34 2/42/2 36/43/36 35/41/35 
f 2/44/2 1/45/1 37/46/37 36/47/36 
f 1/45/1 4/4/4 7/7/7 37/46/37 
s 1
f 38/48/38 39/49/39 40/50/40 
s off
f 7/51/7 6/52/6 41/53/41 42/54/42 
f 6/52/6 9/55/9 43/56/43 41/53/41 
f 9/55/9 11/57/11 44/58/44 43/56/43 
f 11/57/11 13/59/13 45/60/45 44/58/44 
f 13/59/13 15/61/15 46/62/46 45/60/45 
f 15/61/15 17/63/17 47/64/47 46/62/46 
f 17/63/17 19/65/19 48/66/48 47/64/47 
f 19/65/19 21/67/21 49/68/49 48/66/48 
f 21/67/21 23/69/23 50/70/50 49/68/49 
f 23/69/23 25/71/25 51/72/51 50/70/50 
f 25/71/25 27/73/27 52/74/52 51/72/51 
f 27/73/27 29/75/29 53/76/53 52/74/52 
f 29/75/29 31/77/31 54/78/54 53/76/53 
f 31/77/31 33/79/33 55/80/55 54/78/54 
f 33/79/33 35/81/35 56/82/56 55/80/55 
f 35/81/35 36/83/36 57/84/57 56/82/56 
f 36/83/36 37/85/37 58/86/58 57/84/57 
f 37/85/37 7/51/7 42/54/42 58/86/58 
f 42/87/42 41/88/41 59/89/59 60/90/60 
f 41/88/41 43/91/43 61/92/61 59/89/59 
f 43/91/43 44/93/44 62/94/62 61/92/61 
f 44/95/44 45/96/45 63/97/63 62/98/62 
f 45/96/45 46/99/46 64/100/64 63/97/63 
f 46/99/46 47/101/47 65/102/65 64/100/64 
f 47/103/47 48/104/48 66/105/66 65/106/65 
f 48/104/48 49/107/49 67/108/67 66/105/66 
f 49/107/49 50/109/50 68/110/68 67/108/67 
f 50/109/50 51/111/51 69/112/69 68/110/68 
f 51/111/51 52/113/52 70/114/70 69/112/69 
f 52/113/52 53/115/53 71/116/71 70/114/70 
f 53/117/53 54/118/54 72/119/72 71/120/71 
f 54/118/54 55/121/55 73/122/73 72/119/72 
f 55/121/55 56/123/56 74/124/74 73/122/73 
f 56/125/56 57/126/57 75/127/75 74/128/74 
f 57/126/57 58/129/58 76/130/76 75/127/75 
f 58/129/58 42/87/42 60/90/60 76/130/76 
f 60/131/60 59/132/59 77/133/51 78/134/77 
f 59/132/59 61/135/61 79/136/52 77/133/51 
f 61/135/61 62/137/62 80/138/53 79/136/52 
f 62/137/62 63/139/63 81/140/54 80/138/53 
f 63/139/63 64/141/64 82/142/55 81/140/54 
f 64/141/64 65/143/65 83/144/56 82/142/55 
f 65/143/65 66/145/66 84/146/78 83/144/56 
f 66/145/66 67/147/67 85/148/58 84/146/78 
f 67/147/67 68/149/68 86/150/42 85/148/58 
f 68/149/68 69/151/69 87/152/79 86/150/42 
f 69/151/69 70/153/70 88/154/80 87/152/79 
f 70/153/70 71/155/71 89/156/44 88/154/80 
f 71/155/71 72/157/72 90/158/45 89/156/44 
f 72/157/72 73/159/73 91/160/46 90/158/45 
f 73/159/73 74/161/74 92/162/47 91/160/46 
f 74/161/74 75/163/75 93/164/81 92/162/47 
f 75/163/75 76/165/76 94/166/82 93/164/81 
f 76/165/76 60/131/60 78/134/77 94/166/82 
f 78/167/77 77/168/51 95/169/69 96/170/83 
f 77/168/51 79/171/52 97/172/70 95/169/69 
f 79/171/52 80/173/53 98/174/71 97/172/70 
f 80/175/53 81/176/54 99/177/72 98/178/71 
f 81/176/54 82/179/55 100/180/73 99/177/72 
f 82/179/55 83/181/56 101/182/74 100/180/73 
f 83/183/56 84/184/78 102/185/84 101/186/74 
f 84/184/78 85/187/58 103/188/76 102/185/84 
f 85/187/58 86/189/42 104/190/60 103/188/76 
f 86/189/42 87/191/79 105/192/85 104/190/60 
f 87/191/79 88/193/80 106/194/86 105/192/85 
f 88/193/80 89/195/44 107/196/62 106/194/86 
f 89/197/44 90/198/45 108/199/63 107/200/62 
f 90/198/45 91/201/46 109/202/64 108/199/63 
f 91/201/46 92/203/47 110/204/87 109/202/64 
f 92/205/47 93/206/81 111/207/88 110/208/87 
f 93/206/81 94/209/82 112/210/89 111/207/88 
f 94/209/82 78/167/77 96/170/83 112/210/89 
f 96/211/83 95/212/69 113/213/90 114/214/91 
f 95/212/69 97/215/70 115/216/92 113/213/90 
f 97/215/70 98/217/71 116/218/93 115/216/92 
f 98/217/71 99/219/72 117/220/94 116/218/93 
f 99/219/72 100/221/73 118/222/95 117/220/94 
f 100/221/73 101/223/74 119/224/96 118/222/95 
f 101/223/74 102/225/84 120/226/97 119/224/96 
f 102/225/84 103/227/76 121/228/98 120/226/97 
f 103/227/76 104/229/60 122/230/99 121/228/98 
f 104/229/60 105/231/85 123/232/100 122/230/99 
f 105/231/85 106/233/86 124/234/101 123/232/100 
f 106/233/86 107/235/62 125/236/102 124/234/101 
f 107/235/62 108/237/63 126/238/103 125/236/102 
f 108/237/63 109/239/64 127/240/104 126/238/103 
f 109/239/64 110/241/87 128/242/105 127/240/104 
f 110/241/87 111/243/88 129/244/106 128/242/105 
f 111/243/88 112/245/89 130/246/107 129/244/106 
f 112/245/89 96/211/83 114/214/91 130/246/107 
f 114/247/91 113/248/90 39/249/39 38/250/38 
f 113/248/90 115/251/92 131/252/108 39/249/39 
f 115/253/92 116/254/93 132/255/109 131/256/108 
f 116/254/93 117/257/94 133/258/110 132/255/109 
f 117/257/94 118/259/95 134/260/111 133/258/110 
f 118/259/95 119/261/96 135/262/112 134/260/111 
f 119/261/96 120/263/97 136/264/19 135/262/112 
f 120/265/97 121/266/98 137/267/21 136/268/19 
f 121/266/98 122/269/99 138/270/113 137/267/21 
f 122/269/99 123/271/100 139/272/114 138/270/113 
f 123/271/100 124/273/101 140/274/27 139/272/114 
f 124/275/101 125/276/102 141/277/29 140/278/27 
f 125/276/102 126/279/103 142/280/31 141/277/29 
f 126/279/103 127/281/104 143/282/115 142/280/31 
f 127/281/104 128/283/105 144/284/116 143/282/115 
f 128/283/105 129/285/106 145/286/117 144/284/116 
f 129/287/106 130/288/107 146/289/118 145/290/117 
f 130/288/107 114/247/91 38/250/38 146/289/118 
s 1
f 139/291/114 140/292/27 40/50/40 
f 131/293/108 132/294/109 40/50/40 
f 40/50/40 138/295/113 139/291/114 
f 141/296/29 142/297/31 40/50/40 
f 40/50/40 39/49/39 131/293/108 
f 133/298/110 134/299/111 40/50/40 
f 40/50/40 140/292/27 141/296/29 
f 143/300/115 144/301/116 40/50/40 
f 40/50/40 132/294/109 133/298/110 
f 136/302/19 137/303/21 40/50/40 
f 40/50/40 142/297/31 143/300/115 
f 144/301/116 145/304/117 40/50/40 
f 40/50/40 134/299/111 135/305/112 
f 146/306/118 38/48/38 40/50/40 
f 40/50/40 135/305/112 136/302/19 
f 137/303/21 138/295/113 40/50/40 
f 40/50/40 145/304/117 146/306/118 
f 22/307/22 20/308/20 3/3/3 
f 18/309/18 16/310/16 3/3/3 
f 3/3/3 4/311/4 1/1/1 
f 34/312/34 32/313/32 3/3/3 
f 3/3/3 20/308/20 18/309/18 
f 14/314/14 12/315/12 3/3/3 
f 3/3/3 2/2/2 34/312/34 
f 30/316/30 28/317/28 3/3/3 
f 3/3/3 16/310/16 14/314/14 
f 10/318/10 8/319/8 3/3/3 
f 3/3/3 32/313/32 30/316/30 
f 24/320/24 22/307/22 3/3/3 
f 3/3/3 12/315/12 10/318/10 
f 8/319/8 5/321/5 3/3/3 
f 3/3/3 28/317/28 26/322/26 
f 5/321/5 4/311/4 3/3/3 
f 3/3/3 26/322/26 24/320/24 
# 126 polygons - 36 triangles

