# 3ds Max Wavefront OBJ Exporter v0.97b - (c)2007 guruware
# File Created: 21.05.2017 13:50:56

mtllib trashcando.mtl

#
# object Box001
#

v  -0.0818 0.4727 0.1995
v  -0.0820 0.4715 0.1688
v  0.0468 0.4690 0.1726
v  0.0468 0.4716 0.2125
v  0.1963 0.4719 0.1682
v  0.1960 0.4722 0.1775
v  0.1934 0.4726 0.1888
v  0.1865 0.4727 0.1962
v  -0.0820 0.4715 -0.2791
v  0.0468 0.4690 -0.2830
v  0.1752 0.4715 -0.2791
v  0.1752 0.4715 0.1688
v  -0.0818 0.4727 -0.3077
v  0.0468 0.4716 -0.3207
v  0.1866 0.4727 -0.3043
v  0.1934 0.4725 -0.2970
v  0.1960 0.4722 -0.2857
v  0.1963 0.4719 -0.2785
v  -0.1020 1.1552 0.2378
v  -0.0996 1.1550 0.2492
v  -0.0929 1.1549 0.2567
v  -0.1027 1.1561 0.1882
v  0.0468 1.1558 0.2763
v  0.1754 1.1550 0.2603
v  0.1858 1.1563 0.1885
v  0.0468 1.1591 0.1937
v  -0.0894 1.1564 -0.2990
v  -0.0818 1.1550 -0.3685
v  -0.0929 1.1549 -0.3649
v  -0.1027 1.1561 -0.2985
v  0.1963 1.1561 -0.2985
v  0.1956 1.1552 -0.3460
v  0.1932 1.1550 -0.3574
v  0.1865 1.1549 -0.3649
v  0.0468 0.7011 0.2471
v  -0.0832 0.7015 0.2313
v  0.1754 0.4727 0.1995
v  0.1768 0.7015 0.2313
v  0.0468 0.9250 0.2719
v  -0.0832 0.9252 0.2550
v  0.1768 0.9252 0.2550
v  -0.0818 1.1550 0.2603
v  0.1992 0.7024 0.1781
v  0.1977 0.7019 0.2090
v  0.1992 0.7024 -0.2885
v  0.1977 0.7019 -0.3172
v  0.1992 0.9257 0.1860
v  0.1974 0.9254 0.2324
v  0.1992 0.9257 -0.2963
v  0.1974 0.9254 -0.3406
v  0.1963 1.1561 0.1882
v  0.1956 1.1552 0.2378
v  0.1754 0.4727 -0.3077
v  0.0468 0.7011 -0.3553
v  0.1768 0.7015 -0.3395
v  -0.0832 0.7015 -0.3395
v  0.0468 0.9250 -0.3801
v  0.1768 0.9252 -0.3632
v  -0.0832 0.9252 -0.3632
v  0.0468 1.1558 -0.3845
v  0.1754 1.1550 -0.3685
v  -0.1024 0.4722 -0.2857
v  -0.1027 0.4719 -0.2785
v  -0.1056 0.7024 -0.2885
v  -0.1041 0.7019 -0.3172
v  -0.1027 0.4719 0.1682
v  -0.1056 0.7024 0.1781
v  -0.1024 0.4722 0.1775
v  -0.1041 0.7019 0.2089
v  -0.1056 0.9257 -0.2963
v  -0.1038 0.9254 -0.3406
v  -0.1056 0.9257 0.1860
v  -0.1038 0.9254 0.2324
v  -0.1020 1.1552 -0.3460
v  -0.0890 1.1564 0.1887
v  0.1855 1.1564 -0.2989
v  0.0468 0.4790 0.1726
v  -0.0956 0.4790 0.1682
v  -0.0956 0.4790 0.1924
v  0.0468 0.4790 0.2058
v  0.1892 0.4790 0.1682
v  0.1892 0.4790 0.1924
v  0.0468 0.4790 -0.2830
v  -0.0956 0.4790 -0.2785
v  0.1892 0.4790 -0.2785
v  0.0468 0.4790 -0.3140
v  -0.0956 0.4790 -0.3006
v  0.1892 0.4790 -0.3006
v  0.0468 1.1491 0.1937
v  0.0468 1.1491 0.2689
v  -0.0956 1.1491 0.2523
v  -0.0956 1.1491 0.1882
v  0.1892 1.1491 0.1882
v  0.1892 1.1491 0.2523
v  0.0468 1.1491 -0.3771
v  0.0468 1.1491 -0.3040
v  -0.0956 1.1491 -0.2985
v  -0.0956 1.1491 -0.3605
v  0.1892 1.1491 -0.3605
v  0.1892 1.1491 -0.2985
v  0.0468 0.7024 0.2372
v  -0.0956 0.7024 0.2222
v  0.1892 0.7024 0.2222
v  0.0468 0.9257 0.2619
v  -0.0956 0.9257 0.2457
v  0.1892 0.9257 0.2457
v  0.1892 0.7024 0.1781
v  0.1892 0.7024 -0.2885
v  0.1892 0.7024 -0.3305
v  0.1892 0.9257 0.1860
v  0.1892 0.9257 -0.2963
v  0.1892 0.9257 -0.3539
v  0.0468 0.7024 -0.3454
v  -0.0956 0.7024 -0.3305
v  0.0468 0.9257 -0.3701
v  -0.0956 0.9257 -0.3539
v  -0.0956 0.7024 -0.2885
v  -0.0956 0.7024 0.1781
v  -0.0956 0.9257 -0.2963
v  -0.0956 0.9257 0.1860
v  0.0468 0.4790 0.1837
v  -0.0856 0.4790 0.1785
v  0.1792 0.4790 0.1785
v  0.1792 0.4790 -0.2889
v  0.0468 0.4790 -0.2940
v  -0.0856 0.4790 -0.2889
v  -0.0856 1.1391 0.1785
v  0.0468 1.1391 0.1837
v  0.1792 1.1391 0.1785
v  0.1792 1.1391 -0.2889
v  0.0468 1.1391 -0.2940
v  -0.0856 1.1391 -0.2889
v  -0.0943 0.7016 0.2278
v  -0.0929 0.4727 0.1961
v  0.1879 0.7016 0.2278
v  -0.0943 0.9253 0.2513
v  0.1879 0.9252 0.2513
v  0.1865 1.1549 0.2567
v  0.1949 0.7017 -0.3285
v  0.1948 0.9253 -0.3520
v  -0.0929 0.4727 -0.3044
v  -0.0943 0.7016 -0.3360
v  -0.0943 0.9252 -0.3596
v  -0.1013 0.7017 0.2203
v  -0.0998 0.4726 0.1888
v  0.1949 0.7017 0.2203
v  -0.1012 0.9253 0.2438
v  0.1948 0.9253 0.2438
v  0.1932 1.1550 0.2492
v  0.1879 0.7016 -0.3360
v  0.1879 0.9253 -0.3596
v  -0.0998 0.4725 -0.2970
v  -0.1013 0.7017 -0.3285
v  -0.1012 0.9253 -0.3520
v  -0.0996 1.1550 -0.3574
v  0.0468 1.1541 0.1862
v  -0.0899 1.1533 0.1809
v  0.1835 1.1533 -0.2913
v  0.1835 1.1533 0.1809
v  -0.0899 1.1533 -0.2913
v  0.0468 1.1541 -0.2965
v  0.0468 1.1591 -0.3040
# 162 vertices

vn -0.1393 -0.7210 0.6788
vn -0.0202 -0.9996 0.0191
vn -0.0000 -0.9994 0.0338
vn -0.0000 -0.7178 0.6962
vn 0.7092 -0.7046 0.0234
vn 0.7167 -0.6890 0.1074
vn 0.6577 -0.6684 0.3475
vn 0.3877 -0.6845 0.6174
vn -0.0202 -0.9996 -0.0206
vn 0.0000 -0.9994 -0.0356
vn 0.0202 -0.9996 -0.0205
vn 0.0202 -0.9996 0.0192
vn -0.1393 -0.7200 -0.6799
vn 0.0000 -0.7166 -0.6974
vn 0.3870 -0.6839 -0.6185
vn 0.6568 -0.6681 -0.3497
vn 0.7164 -0.6889 -0.1105
vn 0.7092 -0.7046 -0.0250
vn -0.7234 0.6842 0.0923
vn -0.6776 0.6450 0.3534
vn -0.4166 0.6390 0.6467
vn -0.7055 0.7087 0.0078
vn -0.0000 0.6611 0.7503
vn 0.1635 0.6705 0.7237
vn 0.0127 0.9841 -0.1770
vn -0.0000 0.9649 -0.2628
vn -0.0128 0.9842 0.1766
vn -0.1635 0.6701 -0.7241
vn -0.4165 0.6387 -0.6470
vn -0.6807 0.7316 0.0373
vn 0.7087 -0.6187 -0.3391
vn 0.7233 0.6842 -0.0930
vn 0.6775 0.6449 -0.3538
vn 0.4165 0.6388 -0.6469
vn -0.0000 -0.1293 0.9916
vn -0.2123 -0.1193 0.9699
vn 0.1393 -0.7209 0.6789
vn 0.2122 -0.1193 0.9699
vn -0.0000 -0.0644 0.9979
vn -0.2209 -0.0618 0.9733
vn 0.2209 -0.0618 0.9733
vn -0.1635 0.6703 0.7239
vn 0.9996 -0.0073 0.0256
vn 0.9891 -0.0207 0.1454
vn 0.9996 -0.0074 -0.0266
vn 0.9889 -0.0209 -0.1473
vn 0.9998 0.0059 0.0199
vn 0.9907 -0.0044 0.1356
vn 0.9998 0.0059 -0.0205
vn 0.9906 -0.0043 -0.1368
vn 0.7089 -0.6187 0.3387
vn 0.7234 0.6842 0.0924
vn 0.1393 -0.7200 -0.6798
vn 0.0000 -0.1293 -0.9916
vn 0.2122 -0.1193 -0.9699
vn -0.2122 -0.1193 -0.9699
vn 0.0000 -0.0644 -0.9979
vn 0.2209 -0.0618 -0.9733
vn -0.2208 -0.0618 -0.9734
vn 0.0000 0.6607 -0.7506
vn 0.1635 0.6702 -0.7239
vn -0.7164 -0.6889 -0.1108
vn -0.7092 -0.7046 -0.0251
vn -0.9996 -0.0074 -0.0268
vn -0.9888 -0.0209 -0.1475
vn -0.7092 -0.7046 0.0232
vn -0.9996 -0.0073 0.0255
vn -0.7167 -0.6891 0.1071
vn -0.9892 -0.0207 0.1452
vn -0.9998 0.0059 -0.0206
vn -0.9906 -0.0044 -0.1369
vn -0.9998 0.0059 0.0199
vn -0.9908 -0.0043 0.1356
vn -0.7234 0.6842 -0.0931
vn -0.0105 0.9730 -0.2305
vn -0.0417 0.4190 0.9070
vn -0.0368 0.9616 0.2720
vn -0.2313 0.1947 0.9532
vn 0.0404 0.2296 -0.9724
vn 0.0023 0.9078 0.4194
vn 0.7523 -0.0697 -0.6551
vn 0.0000 1.0000 -0.0000
vn 0.7071 0.7071 -0.0000
vn 0.6067 0.6139 -0.5051
vn 0.0000 0.7359 -0.6771
vn -0.7071 0.7071 -0.0000
vn -0.6067 0.6139 -0.5051
vn 0.0000 0.7359 0.6771
vn 0.6067 0.6139 0.5051
vn -0.6067 0.6139 0.5051
vn 0.0000 -0.7212 0.6928
vn 0.0000 -0.6706 -0.7419
vn 0.6053 -0.5763 -0.5491
vn 0.5669 -0.5868 0.5781
vn -0.5669 -0.5868 0.5781
vn -0.6053 -0.5763 -0.5491
vn 0.0000 -0.6706 0.7419
vn 0.0000 -0.7212 -0.6928
vn 0.5669 -0.5868 -0.5781
vn 0.6053 -0.5763 0.5491
vn -0.6053 -0.5763 0.5491
vn -0.5669 -0.5868 -0.5781
vn 0.0000 0.1245 -0.9922
vn 0.7399 0.0797 -0.6680
vn -0.7399 0.0797 -0.6680
vn 0.0000 0.0704 -0.9975
vn 0.7381 0.0454 -0.6731
vn -0.7381 0.0454 -0.6731
vn -1.0000 0.0000 -0.0000
vn -0.7399 0.0797 0.6680
vn -0.7381 0.0454 0.6731
vn 0.0000 0.1245 0.9922
vn 0.7399 0.0797 0.6680
vn 0.0000 0.0704 0.9975
vn 0.7381 0.0454 0.6731
vn 1.0000 0.0000 -0.0000
vn 0.0000 -0.9999 0.0107
vn -0.2855 -0.9162 0.2811
vn 0.2855 -0.9162 0.2811
vn 0.2855 -0.9162 -0.2811
vn 0.0000 -0.9992 -0.0401
vn -0.2855 -0.9162 -0.2811
vn 0.6938 0.1701 -0.6998
vn 0.0000 0.0827 -0.9966
vn -0.6938 0.1701 -0.6998
vn -0.6938 0.1701 0.6998
vn 0.0000 0.0827 0.9966
vn 0.6938 0.1701 0.6998
vn -0.5325 -0.1037 0.8401
vn -0.3877 -0.6846 0.6173
vn 0.5324 -0.1037 0.8401
vn -0.5399 -0.0521 0.8401
vn 0.5398 -0.0521 0.8402
vn 0.4166 0.6389 0.6467
vn 0.8773 -0.0604 -0.4762
vn 0.8818 -0.0272 -0.4708
vn -0.3870 -0.6838 -0.6186
vn -0.5319 -0.1037 -0.8404
vn -0.5395 -0.0521 -0.8404
vn -0.8780 -0.0603 0.4749
vn -0.6577 -0.6685 0.3473
vn 0.8779 -0.0603 0.4750
vn -0.8823 -0.0272 0.4700
vn 0.8822 -0.0272 0.4701
vn 0.6776 0.6449 0.3534
vn 0.5320 -0.1037 -0.8404
vn 0.5396 -0.0521 -0.8403
vn -0.6567 -0.6680 -0.3499
vn -0.8772 -0.0604 -0.4764
vn -0.8818 -0.0272 -0.4709
vn -0.6775 0.6448 -0.3539
vn 0.0000 0.5486 -0.8361
vn 0.3186 0.8673 -0.3825
vn -0.3193 0.8676 0.3811
vn -0.3194 0.8677 -0.3809
vn 0.3187 0.8673 0.3823
vn 0.0000 0.5486 0.8361
vn 0.0000 0.9766 0.2149
vn 0.0000 -0.5110 0.8596
# 159 vertex normals

vt 0.7996 0.8856 0.0000
vt 0.8100 0.8856 0.0000
vt 0.8087 0.9293 0.0000
vt 0.7952 0.9293 0.0000
vt 0.8102 0.9800 0.0000
vt 0.8071 0.9799 0.0000
vt 0.8032 0.9790 0.0000
vt 0.8007 0.9767 0.0000
vt 0.9620 0.8856 0.0000
vt 0.9633 0.9293 0.0000
vt 0.9620 0.9728 0.0000
vt 0.8100 0.9728 0.0000
vt 0.9717 0.8856 0.0000
vt 0.9761 0.9293 0.0000
vt 0.9706 0.9767 0.0000
vt 0.9681 0.9790 0.0000
vt 0.9642 0.9799 0.0000
vt 0.9618 0.9800 0.0000
vt 0.7555 0.8160 0.0000
vt 0.7594 0.8167 0.0000
vt 0.7620 0.8189 0.0000
vt 0.7388 0.8162 0.0000
vt 0.7699 0.8658 0.0000
vt 0.7658 0.9093 0.0000
vt 0.7417 0.9135 0.0000
vt 0.7421 0.8666 0.0000
vt 0.5756 0.8212 0.0000
vt 0.5522 0.8228 0.0000
vt 0.5535 0.8191 0.0000
vt 0.5760 0.8167 0.0000
vt 0.5720 0.9172 0.0000
vt 0.5561 0.9163 0.0000
vt 0.5523 0.9153 0.0000
vt 0.5498 0.9130 0.0000
vt 0.2533 0.1452 0.0000
vt 0.2531 0.1892 0.0000
vt 0.1743 0.1892 0.0000
vt 0.1749 0.1448 0.0000
vt 0.2533 0.2332 0.0000
vt 0.1749 0.2336 0.0000
vt 0.0982 0.1892 0.0000
vt 0.0986 0.1449 0.0000
vt 0.0986 0.2335 0.0000
vt 0.0200 0.1892 0.0000
vt 0.0205 0.1449 0.0000
vt 0.0205 0.2335 0.0000
vt 0.5189 0.0479 0.0000
vt 0.5190 0.0510 0.0000
vt 0.4407 0.0479 0.0000
vt 0.4409 0.0375 0.0000
vt 0.5190 0.2030 0.0000
vt 0.4407 0.2061 0.0000
vt 0.5189 0.2055 0.0000
vt 0.4409 0.2159 0.0000
vt 0.3650 0.0453 0.0000
vt 0.3651 0.0296 0.0000
vt 0.3650 0.2087 0.0000
vt 0.3651 0.2238 0.0000
vt 0.2867 0.0443 0.0000
vt 0.2871 0.0274 0.0000
vt 0.2868 0.2098 0.0000
vt 0.2872 0.2260 0.0000
vt 0.2533 0.0243 0.0000
vt 0.2531 0.0684 0.0000
vt 0.1743 0.0684 0.0000
vt 0.1749 0.0240 0.0000
vt 0.2533 0.1124 0.0000
vt 0.1749 0.1127 0.0000
vt 0.0982 0.0684 0.0000
vt 0.0986 0.0241 0.0000
vt 0.0986 0.1126 0.0000
vt 0.0200 0.0684 0.0000
vt 0.0205 0.0241 0.0000
vt 0.0205 0.1126 0.0000
vt 0.2522 0.2896 0.0000
vt 0.2522 0.2920 0.0000
vt 0.1740 0.2889 0.0000
vt 0.1741 0.2792 0.0000
vt 0.2523 0.4440 0.0000
vt 0.1740 0.4471 0.0000
vt 0.2522 0.4472 0.0000
vt 0.1741 0.4576 0.0000
vt 0.0983 0.2863 0.0000
vt 0.0984 0.2713 0.0000
vt 0.0983 0.4497 0.0000
vt 0.0984 0.4655 0.0000
vt 0.0200 0.2853 0.0000
vt 0.0204 0.2691 0.0000
vt 0.0200 0.4508 0.0000
vt 0.0204 0.4677 0.0000
vt 0.7391 0.8208 0.0000
vt 0.7385 0.8210 0.0000
vt 0.7417 0.9171 0.0000
vt 0.5762 0.9167 0.0000
vt 0.7414 0.9173 0.0000
vt 0.5720 0.9135 0.0000
vt 0.5760 0.9130 0.0000
vt 0.7381 0.8165 0.0000
vt 0.9645 0.1433 0.0000
vt 0.9629 0.0950 0.0000
vt 0.9712 0.0950 0.0000
vt 0.9757 0.1433 0.0000
vt 0.9629 0.1917 0.0000
vt 0.9712 0.1917 0.0000
vt 0.8099 0.1433 0.0000
vt 0.8114 0.0950 0.0000
vt 0.8114 0.1917 0.0000
vt 0.7993 0.1433 0.0000
vt 0.8039 0.0950 0.0000
vt 0.8039 0.1917 0.0000
vt 0.8832 0.2642 0.0000
vt 0.8577 0.2642 0.0000
vt 0.8633 0.2159 0.0000
vt 0.8851 0.2159 0.0000
vt 0.8851 0.3125 0.0000
vt 0.8633 0.3125 0.0000
vt 0.8260 0.2642 0.0000
vt 0.8012 0.2642 0.0000
vt 0.7993 0.2159 0.0000
vt 0.8204 0.2159 0.0000
vt 0.8204 0.3125 0.0000
vt 0.7993 0.3125 0.0000
vt 0.4386 0.3066 0.0000
vt 0.5151 0.3067 0.0000
vt 0.5156 0.3552 0.0000
vt 0.4392 0.3552 0.0000
vt 0.4393 0.2580 0.0000
vt 0.5158 0.2582 0.0000
vt 0.3625 0.3065 0.0000
vt 0.3629 0.3551 0.0000
vt 0.3631 0.2579 0.0000
vt 0.2867 0.3064 0.0000
vt 0.2869 0.3552 0.0000
vt 0.2870 0.2575 0.0000
vt 0.6967 0.7696 0.0000
vt 0.7725 0.7662 0.0000
vt 0.7725 0.7744 0.0000
vt 0.6967 0.7845 0.0000
vt 0.6967 0.6112 0.0000
vt 0.7725 0.6146 0.0000
vt 0.6967 0.5970 0.0000
vt 0.7725 0.6071 0.0000
vt 0.6209 0.7722 0.0000
vt 0.6209 0.7925 0.0000
vt 0.6209 0.6086 0.0000
vt 0.6209 0.5890 0.0000
vt 0.5451 0.7730 0.0000
vt 0.5451 0.7947 0.0000
vt 0.5451 0.6078 0.0000
vt 0.5451 0.5868 0.0000
vt 0.4386 0.4275 0.0000
vt 0.5151 0.4276 0.0000
vt 0.5156 0.4761 0.0000
vt 0.4392 0.4760 0.0000
vt 0.4393 0.3789 0.0000
vt 0.5158 0.3790 0.0000
vt 0.3625 0.4273 0.0000
vt 0.3629 0.4760 0.0000
vt 0.3631 0.3787 0.0000
vt 0.2867 0.4272 0.0000
vt 0.2869 0.4761 0.0000
vt 0.2870 0.3784 0.0000
vt 0.6925 0.5411 0.0000
vt 0.7683 0.5377 0.0000
vt 0.7683 0.5452 0.0000
vt 0.6925 0.5553 0.0000
vt 0.6925 0.3827 0.0000
vt 0.7683 0.3861 0.0000
vt 0.6925 0.3678 0.0000
vt 0.7683 0.3779 0.0000
vt 0.6167 0.5437 0.0000
vt 0.6167 0.5633 0.0000
vt 0.6167 0.3801 0.0000
vt 0.6167 0.3598 0.0000
vt 0.5409 0.5445 0.0000
vt 0.5409 0.5655 0.0000
vt 0.5409 0.3793 0.0000
vt 0.5409 0.3576 0.0000
vt 0.5141 0.6852 0.0000
vt 0.2867 0.6852 0.0000
vt 0.2868 0.6368 0.0000
vt 0.5142 0.6402 0.0000
vt 0.5142 0.7301 0.0000
vt 0.2868 0.7335 0.0000
vt 0.5141 0.9279 0.0000
vt 0.2867 0.9311 0.0000
vt 0.2867 0.7660 0.0000
vt 0.5141 0.7693 0.0000
vt 0.5141 0.5560 0.0000
vt 0.2867 0.5560 0.0000
vt 0.2868 0.5076 0.0000
vt 0.5142 0.5110 0.0000
vt 0.5142 0.6009 0.0000
vt 0.2868 0.6043 0.0000
vt 0.7684 0.3236 0.0000
vt 0.5409 0.3268 0.0000
vt 0.5409 0.1617 0.0000
vt 0.7684 0.1650 0.0000
vt 0.5462 0.1281 0.0000
vt 0.5461 0.0831 0.0000
vt 0.7702 0.0832 0.0000
vt 0.7702 0.1281 0.0000
vt 0.5463 0.0381 0.0000
vt 0.7702 0.0382 0.0000
vt 0.0251 0.9587 0.0000
vt 0.0251 0.8001 0.0000
vt 0.2491 0.8001 0.0000
vt 0.2491 0.9587 0.0000
vt 0.0253 0.5907 0.0000
vt 0.0252 0.5457 0.0000
vt 0.2492 0.5458 0.0000
vt 0.2492 0.5907 0.0000
vt 0.0253 0.5007 0.0000
vt 0.2493 0.5008 0.0000
vt 0.0251 0.7754 0.0000
vt 0.0251 0.6168 0.0000
vt 0.2491 0.6168 0.0000
vt 0.2491 0.7754 0.0000
vt 0.1750 0.1409 0.0000
vt 0.2535 0.1412 0.0000
vt 0.2535 0.2372 0.0000
vt 0.1750 0.2376 0.0000
vt 0.0987 0.1410 0.0000
vt 0.0987 0.2375 0.0000
vt 0.0206 0.1410 0.0000
vt 0.0206 0.2375 0.0000
vt 0.5188 0.2094 0.0000
vt 0.4409 0.2199 0.0000
vt 0.3652 0.2278 0.0000
vt 0.2872 0.2300 0.0000
vt 0.2535 0.1163 0.0000
vt 0.1750 0.1167 0.0000
vt 0.0987 0.1166 0.0000
vt 0.0206 0.1166 0.0000
vt 0.1744 0.4650 0.0000
vt 0.1742 0.4616 0.0000
vt 0.2521 0.4511 0.0000
vt 0.2521 0.4545 0.0000
vt 0.5188 0.0405 0.0000
vt 0.5187 0.0439 0.0000
vt 0.4409 0.0335 0.0000
vt 0.4411 0.0300 0.0000
vt 0.0985 0.4729 0.0000
vt 0.0984 0.4695 0.0000
vt 0.3652 0.0256 0.0000
vt 0.3652 0.0221 0.0000
vt 0.0206 0.4751 0.0000
vt 0.0205 0.4717 0.0000
vt 0.2872 0.0234 0.0000
vt 0.2872 0.0200 0.0000
vt 0.5189 0.2128 0.0000
vt 0.4411 0.2233 0.0000
vt 0.2535 0.0204 0.0000
vt 0.1750 0.0200 0.0000
vt 0.3652 0.2312 0.0000
vt 0.0987 0.0201 0.0000
vt 0.2873 0.2334 0.0000
vt 0.0206 0.0201 0.0000
vt 0.2521 0.2822 0.0000
vt 0.2520 0.2856 0.0000
vt 0.1742 0.2752 0.0000
vt 0.1744 0.2717 0.0000
vt 0.0984 0.2673 0.0000
vt 0.0985 0.2639 0.0000
vt 0.0205 0.2651 0.0000
vt 0.0205 0.2617 0.0000
vt 0.7390 0.8667 0.0000
vt 0.7357 0.8208 0.0000
vt 0.5787 0.9123 0.0000
vt 0.7389 0.9128 0.0000
vt 0.5784 0.8211 0.0000
vt 0.5409 0.0831 0.0000
vt 0.5413 0.1295 0.0000
vt 0.5413 0.0367 0.0000
vt 0.0200 0.7993 0.0000
vt 0.0200 0.9596 0.0000
vt 0.0200 0.5457 0.0000
vt 0.0204 0.5921 0.0000
vt 0.0204 0.4993 0.0000
vt 0.0200 0.6160 0.0000
vt 0.0200 0.7762 0.0000
vt 0.5488 0.9092 0.0000
vt 0.5451 0.8658 0.0000
vt 0.5722 0.8669 0.0000
vt 0.5734 0.8666 0.0000
vt 0.5764 0.8665 0.0000
vt 0.5561 0.8170 0.0000
vt 0.5600 0.8163 0.0000
vt 0.7633 0.8226 0.0000
vt 0.7647 0.9131 0.0000
vt 0.7622 0.9154 0.0000
vt 0.7584 0.9163 0.0000
vt 0.8007 0.8818 0.0000
vt 0.8032 0.8795 0.0000
vt 0.8071 0.8786 0.0000
vt 0.8102 0.8785 0.0000
vt 0.9618 0.8785 0.0000
vt 0.9642 0.8786 0.0000
vt 0.9681 0.8795 0.0000
vt 0.9706 0.8818 0.0000
vt 0.7996 0.9729 0.0000
vt 0.9717 0.9729 0.0000
# 302 texture coords

o Box001
g Box001
usemtl wire_115115115
s 1
f 1/1/1 2/2/2 3/3/3 4/4/4 
f 5/5/5 6/6/6 7/7/7 8/8/8 
f 9/9/9 10/10/10 3/3/3 2/2/2 
f 3/3/3 10/10/10 11/11/11 12/12/12 
f 13/13/13 14/14/14 10/10/10 9/9/9 
f 15/15/15 16/16/16 17/17/17 18/18/18 
f 19/19/19 20/20/20 21/21/21 22/22/22 
f 23/23/23 24/24/24 25/25/25 26/26/26 
f 27/27/27 28/28/28 29/29/29 30/30/30 
f 31/31/31 32/32/32 33/33/33 34/34/34 
s 2
f 1/35/1 4/36/4 35/37/35 36/38/36 
f 4/36/4 37/39/37 38/40/38 35/37/35 
f 36/38/36 35/37/35 39/41/39 40/42/40 
f 35/37/35 38/40/38 41/43/41 39/41/39 
f 40/42/40 39/41/39 23/44/23 42/45/42 
f 39/41/39 41/43/41 24/46/24 23/44/23 
f 6/47/6 5/48/5 43/49/43 44/50/44 
f 5/48/5 18/51/18 45/52/45 43/49/43 
f 18/51/18 17/53/17 46/54/46 45/52/45 
f 44/50/44 43/49/43 47/55/47 48/56/48 
f 43/49/43 45/52/45 49/57/49 47/55/47 
f 45/52/45 46/54/46 50/58/50 49/57/49 
f 48/56/48 47/55/47 51/59/51 52/60/52 
f 47/55/47 49/57/49 31/61/31 51/59/51 
f 49/57/49 50/58/50 32/62/32 31/61/31 
f 53/63/53 14/64/14 54/65/54 55/66/55 
f 14/64/14 13/67/13 56/68/56 54/65/54 
f 55/66/55 54/65/54 57/69/57 58/70/58 
f 54/65/54 56/68/56 59/71/59 57/69/57 
f 58/70/58 57/69/57 60/72/60 61/73/61 
f 57/69/57 59/71/59 28/74/28 60/72/60 
f 62/75/62 63/76/63 64/77/64 65/78/65 
f 63/76/63 66/79/66 67/80/67 64/77/64 
f 66/79/66 68/81/68 69/82/69 67/80/67 
f 65/78/65 64/77/64 70/83/70 71/84/71 
f 64/77/64 67/80/67 72/85/72 70/83/70 
f 67/80/67 69/82/69 73/86/73 72/85/72 
f 71/84/71 70/83/70 30/87/30 74/88/74 
f 70/83/70 72/85/72 22/89/22 30/87/30 
f 72/85/72 73/86/73 19/90/19 22/89/22 
s 1
f 75/91/75 26/26/26 75/92/76 
f 51/93/51 31/31/31 31/94/77 51/95/78 
f 31/31/31 76/96/79 76/97/80 31/94/77 
f 30/30/30 22/22/22 22/98/81 
f 77/99/82 78/100/83 79/101/84 80/102/85 
f 81/103/86 77/99/82 80/102/85 82/104/87 
f 83/105/82 84/106/83 78/100/83 77/99/82 
f 85/107/86 83/105/82 77/99/82 81/103/86 
f 86/108/88 87/109/89 84/106/83 83/105/82 
f 88/110/90 86/108/88 83/105/82 85/107/86 
f 89/111/91 90/112/92 91/113/93 92/114/94 
f 93/115/95 94/116/96 90/112/92 89/111/91 
f 95/117/97 96/118/98 97/119/99 98/120/100 
f 99/121/101 100/122/102 96/118/98 95/117/97 
s 2
f 101/123/103 80/124/85 79/125/84 102/126/104 
f 103/127/105 82/128/87 80/124/85 101/123/103 
f 104/129/106 101/123/103 102/126/104 105/130/107 
f 106/131/108 103/127/105 101/123/103 104/129/106 
f 90/132/92 104/129/106 105/130/107 91/133/93 
f 94/134/96 106/131/108 104/129/106 90/132/92 
s 4
f 107/135/109 81/136/86 82/137/87 103/138/105 
f 108/139/109 85/140/86 81/136/86 107/135/109 
f 109/141/110 88/142/90 85/140/86 108/139/109 
f 110/143/109 107/135/109 103/138/105 106/144/108 
f 111/145/109 108/139/109 107/135/109 110/143/109 
f 112/146/111 109/141/110 108/139/109 111/145/109 
f 93/147/95 110/143/109 106/144/108 94/148/96 
f 100/149/102 111/145/109 110/143/109 93/147/95 
f 99/150/101 112/146/111 111/145/109 100/149/102 
s 2
f 113/151/112 86/152/88 88/153/90 109/154/110 
f 114/155/113 87/156/89 86/152/88 113/151/112 
f 115/157/114 113/151/112 109/154/110 112/158/111 
f 116/159/115 114/155/113 113/151/112 115/157/114 
f 95/160/97 115/157/114 112/158/111 99/161/101 
f 98/162/100 116/159/115 115/157/114 95/160/97 
s 4
f 117/163/116 84/164/83 87/165/89 114/166/113 
f 118/167/116 78/168/83 84/164/83 117/163/116 
f 102/169/104 79/170/84 78/168/83 118/167/116 
f 119/171/116 117/163/116 114/166/113 116/172/115 
f 120/173/116 118/167/116 117/163/116 119/171/116 
f 105/174/107 102/169/104 118/167/116 120/173/116 
f 97/175/99 119/171/116 116/172/115 98/176/100 
f 92/177/94 120/173/116 119/171/116 97/175/99 
f 91/178/93 105/174/107 120/173/116 92/177/94 
s 2
f 121/179/117 89/180/91 92/181/94 122/182/118 
f 123/183/119 93/184/95 89/180/91 121/179/117 
s 8
f 124/185/120 100/186/102 93/187/95 123/188/119 
s 2
f 125/189/121 96/190/98 100/191/102 124/192/120 
f 126/193/122 97/194/99 96/190/98 125/189/121 
s 8
f 122/195/118 92/196/94 97/197/99 126/198/122 
s 4
f 127/199/123 128/200/124 121/201/117 122/202/118 
f 128/200/124 129/203/125 123/204/119 121/201/117 
s 16
f 129/205/125 130/206/126 124/207/120 123/208/119 
s 4
f 130/209/126 131/210/127 125/211/121 124/212/120 
f 131/210/127 132/213/128 126/214/122 125/211/121 
s 16
f 132/215/128 127/216/123 122/217/118 126/218/122 
s 2
f 36/38/36 133/219/129 134/220/130 1/35/1 
f 37/39/37 8/221/8 135/222/131 38/40/38 
f 40/42/40 136/223/132 133/219/129 36/38/36 
f 38/40/38 135/222/131 137/224/133 41/43/41 
f 42/45/42 21/225/21 136/223/132 40/42/40 
f 41/43/41 137/224/133 138/226/134 24/46/24 
f 17/53/17 16/227/16 139/228/135 46/54/46 
f 46/54/46 139/228/135 140/229/136 50/58/50 
f 50/58/50 140/229/136 33/230/33 32/62/32 
f 13/67/13 141/231/137 142/232/138 56/68/56 
f 56/68/56 142/232/138 143/233/139 59/71/59 
f 59/71/59 143/233/139 29/234/29 28/74/28 
f 133/235/129 144/236/140 145/237/141 134/238/130 
f 144/236/140 69/82/69 68/81/68 145/237/141 
f 8/239/8 7/240/7 146/241/142 135/242/131 
f 7/240/7 6/47/6 44/50/44 146/241/142 
f 136/243/132 147/244/143 144/236/140 133/235/129 
f 147/244/143 73/86/73 69/82/69 144/236/140 
f 135/242/131 146/241/142 148/245/144 137/246/133 
f 146/241/142 44/50/44 48/56/48 148/245/144 
f 21/247/21 20/248/20 147/244/143 136/243/132 
f 20/248/20 19/90/19 73/86/73 147/244/143 
f 137/246/133 148/245/144 149/249/145 138/250/134 
f 148/245/144 48/56/48 52/60/52 149/249/145 
f 16/227/16 15/251/15 150/252/146 139/228/135 
f 15/253/15 53/63/53 55/66/55 150/254/146 
f 139/228/135 150/252/146 151/255/147 140/229/136 
f 150/254/146 55/66/55 58/70/58 151/256/147 
f 140/229/136 151/255/147 34/257/34 33/230/33 
f 151/256/147 58/70/58 61/73/61 34/258/34 
f 141/259/137 152/260/148 153/261/149 142/262/138 
f 152/260/148 62/75/62 65/78/65 153/261/149 
f 142/262/138 153/261/149 154/263/150 143/264/139 
f 153/261/149 65/78/65 71/84/71 154/263/150 
f 143/264/139 154/263/150 155/265/151 29/266/29 
f 154/263/150 71/84/71 74/88/74 155/265/151 
s 1
f 26/26/26 156/267/152 157/268/153 75/92/76 
f 31/94/77 158/269/154 159/270/155 51/95/78 
f 158/269/154 31/94/77 76/97/80 
f 30/30/30 160/271/156 27/27/27 
f 22/98/81 157/268/153 160/271/156 30/30/30 
s 4
f 156/272/152 128/200/124 127/199/123 157/273/153 
f 159/274/155 129/203/125 128/200/124 156/272/152 
s 16
f 158/275/154 130/206/126 129/205/125 159/276/155 
s 4
f 161/277/157 131/210/127 130/209/126 158/278/154 
f 160/279/156 132/213/128 131/210/127 161/277/157 
s 16
f 157/280/153 127/216/123 132/215/128 160/281/156 
s 1
f 34/34/34 61/282/61 76/96/79 31/31/31 
f 61/282/61 60/283/60 162/284/158 76/96/79 
f 76/96/79 162/284/158 162/285/159 76/97/80 
f 76/97/80 162/285/159 161/286/157 158/269/154 
f 29/29/29 155/287/151 74/288/74 30/30/30 
f 160/271/156 161/286/157 162/285/159 27/27/27 
f 27/27/27 162/285/159 162/284/158 
f 27/27/27 162/284/158 60/283/60 28/28/28 
f 42/289/42 23/23/23 26/26/26 75/91/75 
f 157/268/153 22/98/81 75/92/76 
f 75/92/76 22/98/81 22/22/22 75/91/75 
f 75/91/75 22/22/22 21/21/21 42/289/42 
f 138/290/134 149/291/145 52/292/52 51/93/51 
f 26/26/26 25/25/25 159/270/155 156/267/152 
f 24/24/24 138/290/134 51/93/51 25/25/25 
f 25/25/25 51/93/51 51/95/78 159/270/155 
f 134/293/130 145/294/141 68/295/68 66/296/66 
f 1/1/1 134/293/130 66/296/66 2/2/2 
f 2/2/2 66/296/66 63/297/63 9/9/9 
f 63/297/63 62/298/62 152/299/148 141/300/137 
f 141/300/137 13/13/13 9/9/9 63/297/63 
f 37/301/37 4/4/4 3/3/3 12/12/12 
f 11/11/11 10/10/10 14/14/14 53/302/53 
f 53/302/53 15/15/15 18/18/18 11/11/11 
f 11/11/11 18/18/18 5/5/5 12/12/12 
f 12/12/12 5/5/5 8/8/8 37/301/37 
# 163 polygons - 6 triangles

