# 3ds Max Wavefront OBJ Exporter v0.97b - (c)2007 guruware
# File Created: 24.05.2017 13:56:57

mtllib lock.mtl

#
# object Box001
#

v  0.0652 0.0000 -0.0003
v  0.0652 0.0000 -0.0522
v  0.0880 0.0000 -0.0522
v  0.0880 0.0000 -0.0003
v  0.0880 0.0710 -0.0003
v  0.0652 0.0710 -0.0003
v  0.0880 0.0710 -0.0522
v  0.0880 0.0000 -0.1005
v  0.0652 0.0000 -0.1005
v  0.0652 0.0710 -0.1005
v  0.0880 0.0710 -0.1005
v  0.0652 0.0710 -0.0522
v  0.0834 0.0710 -0.0131
v  0.0698 0.0710 -0.0131
v  0.0834 0.0710 -0.0247
v  0.0698 0.0710 -0.0247
v  0.0834 0.0710 -0.0895
v  0.0834 0.0710 -0.0788
v  0.0698 0.0710 -0.0895
v  0.0698 0.0710 -0.0788
v  0.0834 0.1241 -0.0116
v  0.0698 0.1241 -0.0116
v  0.0834 0.1241 -0.0265
v  0.0698 0.1241 -0.0265
v  0.0834 0.1235 -0.0903
v  0.0834 0.1235 -0.0766
v  0.0698 0.1235 -0.0903
v  0.0698 0.1235 -0.0766
v  0.0834 0.1371 -0.0690
v  0.0834 0.1301 -0.0586
v  0.0698 0.1371 -0.0690
v  0.0698 0.1294 -0.0607
v  0.0834 0.1377 -0.0337
v  0.0698 0.1377 -0.0337
v  0.0834 0.1295 -0.0441
v  0.0698 0.1295 -0.0441
# 36 vertices

vn -0.5774 -0.5774 0.5774
vn -0.7071 -0.7071 -0.0000
vn 0.7071 -0.7071 -0.0000
vn 0.5774 -0.5774 0.5774
vn 0.5774 0.5774 0.5774
vn -0.5774 0.5774 0.5774
vn 0.7071 0.7071 -0.0000
vn 0.5774 -0.5774 -0.5774
vn -0.5774 -0.5774 -0.5774
vn -0.5774 0.5774 -0.5774
vn 0.5774 0.5774 -0.5774
vn -0.7071 0.7071 -0.0000
vn 0.3089 0.9014 0.3033
vn -0.3089 0.9014 0.3033
vn 0.3103 0.9009 -0.3035
vn -0.3103 0.9009 -0.3035
vn 0.3056 0.9029 -0.3024
vn 0.3124 0.9000 0.3040
vn -0.3056 0.9029 -0.3024
vn -0.3124 0.9000 0.3040
vn 0.6100 0.3765 0.6973
vn -0.6100 0.3765 0.6973
vn 0.8642 -0.3068 -0.3987
vn -0.8642 -0.3068 -0.3987
vn 0.6120 0.3753 -0.6962
vn 0.8556 -0.3053 0.4180
vn -0.6120 0.3753 -0.6962
vn -0.8553 -0.3051 0.4187
vn 0.6510 0.7268 -0.2189
vn 0.7648 -0.6386 0.0852
vn -0.6510 0.7268 -0.2189
vn -0.7409 -0.6586 0.1312
vn 0.6489 0.7340 0.2004
vn -0.6489 0.7340 0.2004
vn 0.7359 -0.6674 -0.1142
vn -0.7419 -0.6635 -0.0965
# 36 vertex normals

vt 0.0200 0.1399 0.0000
vt 0.2412 0.1399 0.0000
vt 0.2412 0.2373 0.0000
vt 0.0200 0.2373 0.0000
vt 0.3230 0.7125 0.0000
vt 0.3230 0.8100 0.0000
vt 0.0200 0.8100 0.0000
vt 0.0200 0.7125 0.0000
vt 0.9623 0.0378 0.0000
vt 0.9623 0.2589 0.0000
vt 0.6593 0.2589 0.0000
vt 0.6593 0.0378 0.0000
vt 0.6515 0.6459 0.0000
vt 0.6515 0.7434 0.0000
vt 0.3485 0.7434 0.0000
vt 0.3485 0.6459 0.0000
vt 0.3230 0.2597 0.0000
vt 0.3230 0.4658 0.0000
vt 0.0200 0.4658 0.0000
vt 0.0200 0.2597 0.0000
vt 0.4472 0.1399 0.0000
vt 0.4472 0.2373 0.0000
vt 0.9623 0.4650 0.0000
vt 0.6593 0.4650 0.0000
vt 0.3230 0.6870 0.0000
vt 0.0200 0.6870 0.0000
vt 0.4472 0.0200 0.0000
vt 0.4472 0.1175 0.0000
vt 0.3927 0.0977 0.0000
vt 0.3927 0.0397 0.0000
vt 0.2261 0.1175 0.0000
vt 0.3432 0.0977 0.0000
vt 0.2261 0.0200 0.0000
vt 0.3432 0.0397 0.0000
vt 0.0200 0.1175 0.0000
vt 0.0670 0.0977 0.0000
vt 0.1124 0.0977 0.0000
vt 0.0200 0.0200 0.0000
vt 0.0670 0.0397 0.0000
vt 0.1124 0.0397 0.0000
vt 0.2466 0.8324 0.0000
vt 0.2466 0.8904 0.0000
vt 0.0200 0.8904 0.0000
vt 0.0200 0.8324 0.0000
vt 0.9616 0.5059 0.0000
vt 0.9616 0.5554 0.0000
vt 0.7350 0.5631 0.0000
vt 0.7350 0.4994 0.0000
vt 0.9747 0.6326 0.0000
vt 0.9747 0.6906 0.0000
vt 0.7480 0.6906 0.0000
vt 0.7480 0.6326 0.0000
vt 0.6331 0.5525 0.0000
vt 0.6332 0.6020 0.0000
vt 0.4066 0.6088 0.0000
vt 0.4066 0.5451 0.0000
vt 0.9616 0.7862 0.0000
vt 0.9616 0.8316 0.0000
vt 0.7376 0.8352 0.0000
vt 0.7376 0.7768 0.0000
vt 0.9631 0.8723 0.0000
vt 0.9631 0.9304 0.0000
vt 0.7392 0.9304 0.0000
vt 0.7392 0.8723 0.0000
vt 0.6328 0.2763 0.0000
vt 0.6328 0.3217 0.0000
vt 0.4089 0.3314 0.0000
vt 0.4089 0.2730 0.0000
vt 0.5815 0.7658 0.0000
vt 0.5815 0.8238 0.0000
vt 0.3574 0.8238 0.0000
vt 0.3574 0.7658 0.0000
vt 0.6799 0.7443 0.0000
vt 0.7095 0.7001 0.0000
vt 0.0200 0.9212 0.0000
vt 0.1277 0.9212 0.0000
vt 0.1277 0.9792 0.0000
vt 0.0200 0.9792 0.0000
vt 0.3840 0.3991 0.0000
vt 0.3512 0.3640 0.0000
vt 0.6461 0.9796 0.0000
vt 0.5644 0.9800 0.0000
vt 0.5737 0.9219 0.0000
vt 0.6458 0.9216 0.0000
vt 0.3890 0.9792 0.0000
vt 0.2783 0.9792 0.0000
vt 0.2783 0.9212 0.0000
vt 0.3890 0.9212 0.0000
vt 0.7124 0.6382 0.0000
vt 0.6770 0.5937 0.0000
vt 0.4243 0.9212 0.0000
vt 0.5027 0.9216 0.0000
vt 0.5024 0.9796 0.0000
vt 0.4240 0.9792 0.0000
vt 0.3485 0.5146 0.0000
vt 0.3838 0.4700 0.0000
# 96 texture coords

o Box001
g Box001
usemtl wire_028028177
s 2
f 1/1/1 2/2/2 3/3/3 4/4/4 
s 8
f 1/5/1 4/6/4 5/7/5 6/8/6 
s 16
f 4/9/4 3/10/3 7/11/7 5/12/5 
s 32
f 8/13/8 9/14/9 10/15/10 11/16/11 
s 64
f 9/17/9 2/18/2 12/19/12 10/20/10 
s 2
f 2/2/2 9/21/9 8/22/8 3/3/3 
s 16
f 3/10/3 8/23/8 11/24/11 7/11/7 
s 64
f 2/18/2 1/25/1 6/26/6 12/19/12 
s off
f 6/27/6 5/28/5 13/29/13 14/30/14 
f 5/28/5 7/31/7 15/32/15 13/29/13 
f 7/31/7 12/33/12 16/34/16 15/32/15 
f 12/33/12 6/27/6 14/30/14 16/34/16 
f 7/31/7 11/35/11 17/36/17 18/37/18 
f 11/35/11 10/38/10 19/39/19 17/36/17 
f 10/38/10 12/33/12 20/40/20 19/39/19 
f 12/33/12 7/31/7 18/37/18 20/40/20 
f 14/41/14 13/42/13 21/43/21 22/44/22 
f 13/45/13 15/46/15 23/47/23 21/48/21 
f 15/49/15 16/50/16 24/51/24 23/52/23 
f 16/53/16 14/54/14 22/55/22 24/56/24 
f 18/57/18 17/58/17 25/59/25 26/60/26 
f 17/61/17 19/62/19 27/63/27 25/64/25 
f 19/65/19 20/66/20 28/67/28 27/68/27 
f 20/69/20 18/70/18 26/71/26 28/72/28 
f 25/59/25 29/73/29 30/74/30 26/60/26 
f 27/75/27 31/76/31 29/77/29 25/78/25 
f 28/67/28 32/79/32 31/80/31 27/68/27 
f 26/81/26 30/82/30 32/83/32 28/84/28 
f 21/85/21 33/86/33 34/87/34 22/88/22 
f 23/47/23 35/89/35 33/90/33 21/48/21 
f 24/91/24 36/92/36 35/93/35 23/94/23 
f 22/55/22 34/95/34 36/96/36 24/56/24 
s 1
f 33/90/33 35/89/35 30/74/30 29/73/29 
s 2
f 35/93/35 36/92/36 32/83/32 30/82/30 
s 1
f 36/96/36 34/95/34 31/80/31 32/79/32 
s 2
f 34/87/34 33/86/33 29/77/29 31/76/31 
# 36 polygons

