# 3ds Max Wavefront OBJ Exporter v0.97b - (c)2007 guruware
# File Created: 24.05.2017 13:50:55

mtllib star.mtl

#
# object Gengon001
#

v  0.0028 0.0151 -0.0023
v  0.0449 0.0104 0.0106
v  0.1137 0.0151 -0.0363
v  0.0281 0.0104 -0.0383
v  0.0047 0.0151 -0.1182
v  -0.0236 0.0104 -0.0375
v  -0.1069 0.0151 -0.0399
v  -0.0388 0.0104 0.0120
v  -0.0669 0.0151 0.0904
v  0.0035 0.0104 0.0417
v  0.0694 0.0151 0.0926
v  0.0449 0.0047 0.0106
v  0.1137 0.0000 -0.0363
v  0.0281 0.0047 -0.0383
v  0.0047 0.0000 -0.1182
v  -0.0236 0.0047 -0.0375
v  -0.1069 0.0000 -0.0399
v  -0.0388 0.0047 0.0120
v  -0.0669 0.0000 0.0904
v  0.0035 0.0047 0.0417
v  0.0694 0.0000 0.0926
v  0.0028 0.0000 -0.0023
# 22 vertices

vn -0.0000 1.0000 -0.0000
vn 0.5462 0.8132 0.2009
vn 0.7967 0.5565 -0.2356
vn 0.3599 0.8132 -0.4574
vn 0.0221 0.5565 -0.8305
vn -0.3238 0.8132 -0.4836
vn -0.7830 0.5565 -0.2776
vn -0.5600 0.8132 0.1585
vn -0.5060 0.5565 0.6589
vn -0.0223 0.8132 0.5816
vn 0.4703 0.5565 0.6849
vn 0.5462 -0.8132 0.2009
vn 0.7967 -0.5565 -0.2356
vn 0.3599 -0.8132 -0.4574
vn 0.0221 -0.5565 -0.8305
vn -0.3238 -0.8132 -0.4836
vn -0.7830 -0.5565 -0.2776
vn -0.5600 -0.8132 0.1585
vn -0.5060 -0.5565 0.6589
vn -0.0223 -0.8132 0.5816
vn 0.4703 -0.5565 0.6849
vn -0.0000 -1.0000 -0.0000
# 22 vertex normals

vt 0.3173 0.2732 0.0000
vt 0.4327 0.2407 0.0000
vt 0.6139 0.3707 0.0000
vt 0.3838 0.3729 0.0000
vt 0.3162 0.5854 0.0000
vt 0.2431 0.3673 0.0000
vt 0.0200 0.3686 0.0000
vt 0.2049 0.2317 0.0000
vt 0.1347 0.0200 0.0000
vt 0.3221 0.1535 0.0000
vt 0.5017 0.0213 0.0000
vt 0.7282 0.2285 0.0000
vt 0.7282 0.2131 0.0000
vt 0.9523 0.2005 0.0000
vt 0.9523 0.2410 0.0000
vt 0.7144 0.0790 0.0000
vt 0.7144 0.0385 0.0000
vt 0.9447 0.0511 0.0000
vt 0.9447 0.0664 0.0000
vt 0.0200 0.5710 0.0000
vt 0.0200 0.5557 0.0000
vt 0.2441 0.5431 0.0000
vt 0.2441 0.5836 0.0000
vt 0.4227 0.4493 0.0000
vt 0.4227 0.4088 0.0000
vt 0.6531 0.4214 0.0000
vt 0.6531 0.4368 0.0000
vt 0.4644 0.4044 0.0000
vt 0.4644 0.3890 0.0000
vt 0.6885 0.3764 0.0000
vt 0.6885 0.4169 0.0000
vt 0.0200 0.5280 0.0000
vt 0.0200 0.4875 0.0000
vt 0.2504 0.5001 0.0000
vt 0.2504 0.5155 0.0000
vt 0.4598 0.5803 0.0000
vt 0.4598 0.5649 0.0000
vt 0.6838 0.5523 0.0000
vt 0.6838 0.5928 0.0000
vt 0.5060 0.1623 0.0000
vt 0.5061 0.1218 0.0000
vt 0.7364 0.1344 0.0000
vt 0.7364 0.1498 0.0000
vt 0.9605 0.1218 0.0000
vt 0.9605 0.1623 0.0000
vt 0.4459 0.5280 0.0000
vt 0.4459 0.4875 0.0000
vt 0.6762 0.5001 0.0000
vt 0.6762 0.5155 0.0000
vt 0.5009 0.7589 0.0000
vt 0.3873 0.7209 0.0000
vt 0.6876 0.6353 0.0000
vt 0.4586 0.6246 0.0000
vt 0.3988 0.4088 0.0000
vt 0.3178 0.6234 0.0000
vt 0.0941 0.6136 0.0000
vt 0.2731 0.7569 0.0000
vt 0.1947 0.9665 0.0000
vt 0.3863 0.8406 0.0000
vt 0.5614 0.9800 0.0000
# 60 texture coords

o Gengon001
g Gengon001
usemtl wire_177148027
s off
f 1/1/1 2/2/2 3/3/3 
f 1/1/1 3/3/3 4/4/4 
f 1/1/1 4/4/4 5/5/5 
f 1/1/1 5/5/5 6/6/6 
f 1/1/1 6/6/6 7/7/7 
f 1/1/1 7/7/7 8/8/8 
f 1/1/1 8/8/8 9/9/9 
f 1/1/1 9/9/9 10/10/10 
f 1/1/1 10/10/10 11/11/11 
f 1/1/1 11/11/11 2/2/2 
f 2/12/2 12/13/12 13/14/13 3/15/3 
f 3/16/3 13/17/13 14/18/14 4/19/4 
f 4/20/4 14/21/14 15/22/15 5/23/5 
f 5/24/5 15/25/15 16/26/16 6/27/6 
f 6/28/6 16/29/16 17/30/17 7/31/7 
f 7/32/7 17/33/17 18/34/18 8/35/8 
f 8/36/8 18/37/18 19/38/19 9/39/9 
f 9/40/9 19/41/19 20/42/20 10/43/10 
f 10/43/10 20/42/20 21/44/21 11/45/11 
f 11/46/11 21/47/21 12/48/12 2/49/2 
f 12/50/12 22/51/22 13/52/13 
f 13/52/13 22/51/22 14/53/14 
f 14/53/14 22/51/22 15/54/15 
f 15/54/15 22/51/22 16/55/16 
f 16/55/16 22/51/22 17/56/17 
f 17/56/17 22/51/22 18/57/18 
f 18/57/18 22/51/22 19/58/19 
f 19/58/19 22/51/22 20/59/20 
f 20/59/20 22/51/22 21/60/21 
f 21/60/21 22/51/22 12/50/12 
# 10 polygons - 20 triangles

