# 3ds Max Wavefront OBJ Exporter v0.97b - (c)2007 guruware
# File Created: 11.05.2017 13:48:13

mtllib scheve tafel.mtl

#
# object Box002
#

v  -0.7554 0.0109 1.2805
v  -0.7554 0.0109 1.0844
v  -0.5308 0.0109 1.0844
v  -0.5308 0.0109 1.2805
v  -0.5308 0.9496 1.2805
v  -0.5308 0.9496 1.0844
v  0.5227 0.9496 1.0844
v  0.5227 0.9496 1.2805
v  0.5227 0.0109 1.2805
v  0.5227 0.0109 1.0844
v  0.7446 0.0109 1.0844
v  0.7446 0.0109 1.2805
v  -0.7554 0.9496 1.0844
v  -0.7554 0.8335 -1.4722
v  -0.5308 0.8335 -1.4722
v  0.5227 0.8335 -1.4722
v  0.7446 0.8335 -1.4722
v  0.7446 0.9496 1.0844
v  -0.7554 0.0164 -1.6814
v  -0.7554 0.0164 -1.8969
v  -0.5308 0.0164 -1.8969
v  -0.5308 0.0164 -1.6814
v  -0.5308 0.8335 -1.6878
v  0.5227 0.8335 -1.6878
v  0.5227 0.0164 -1.6814
v  0.5227 0.0164 -1.8969
v  0.7446 0.0164 -1.8969
v  0.7446 0.0164 -1.6814
v  -0.7554 1.0996 1.2805
v  -0.5308 1.0996 1.2805
v  -0.5308 1.0996 1.0844
v  -0.7554 1.0996 1.0844
v  0.5227 1.0996 1.2805
v  0.5227 1.0996 1.0844
v  0.7446 1.0996 1.2805
v  0.7446 1.0996 1.0844
v  -0.5308 0.9835 -1.4722
v  -0.7554 0.9835 -1.4722
v  0.5227 0.9835 -1.4722
v  0.7446 0.9835 -1.4722
v  -0.5308 0.9835 -1.6878
v  -0.7554 0.9835 -1.6878
v  0.5227 0.9835 -1.6878
v  0.7446 0.9835 -1.6878
v  -0.7554 0.9496 1.2805
v  0.7446 0.9496 1.2805
v  0.7446 0.8335 -1.6878
v  -0.7554 0.8335 -1.6878
# 48 vertices

vn -0.5774 -0.5774 0.5774
vn -0.5774 -0.5774 -0.5774
vn 0.5774 -0.5774 -0.5774
vn 0.5774 -0.5774 0.5774
vn 0.3015 -0.3015 0.9045
vn 0.3041 -0.9116 -0.2765
vn -0.3041 -0.9116 -0.2765
vn -0.3015 -0.3015 0.9045
vn -0.9098 -0.3001 -0.2868
vn -0.8682 -0.3850 0.3131
vn 0.2390 -0.9231 0.3013
vn -0.2390 -0.9231 0.3013
vn 0.8682 -0.3850 0.3131
vn 0.9098 -0.3001 -0.2868
vn -0.5917 -0.6368 0.4944
vn -0.5653 -0.5058 -0.6516
vn 0.5653 -0.5058 -0.6516
vn 0.5917 -0.6368 0.4944
vn 0.3541 -0.2297 -0.9066
vn -0.3541 -0.2297 -0.9066
vn -0.5774 0.5774 0.5774
vn 0.0000 0.7071 0.7071
vn 0.0000 0.9997 -0.0227
vn -0.7020 0.7120 -0.0161
vn 0.5774 0.5774 0.5774
vn 0.7020 0.7120 -0.0161
vn -0.7122 0.7017 -0.0159
vn 0.7122 0.7017 -0.0159
vn 0.0000 0.7071 -0.7071
vn -0.5774 0.5774 -0.5774
vn 0.5774 0.5774 -0.5774
vn -0.7071 0.0000 0.7071
vn 0.7071 0.0000 0.7071
vn 0.7363 0.0845 -0.6713
vn -0.7363 0.0845 -0.6713
# 35 vertex normals

vt 0.1299 0.0634 0.0000
vt 0.1627 0.0634 0.0000
vt 0.1627 0.1010 0.0000
vt 0.1299 0.1010 0.0000
vt 0.4686 0.2881 0.0000
vt 0.5015 0.2881 0.0000
vt 0.5015 0.4644 0.0000
vt 0.4686 0.4644 0.0000
vt 0.0786 0.1163 0.0000
vt 0.1114 0.1163 0.0000
vt 0.1114 0.1534 0.0000
vt 0.0786 0.1534 0.0000
vt 0.5015 0.2505 0.0000
vt 0.9293 0.2505 0.0000
vt 0.9293 0.2881 0.0000
vt 0.9293 0.4644 0.0000
vt 0.9293 0.5015 0.0000
vt 0.5015 0.5015 0.0000
vt 0.0786 0.0634 0.0000
vt 0.1146 0.0634 0.0000
vt 0.1146 0.1010 0.0000
vt 0.0786 0.1010 0.0000
vt 0.9654 0.2881 0.0000
vt 0.9654 0.4644 0.0000
vt 0.1299 0.1163 0.0000
vt 0.1660 0.1163 0.0000
vt 0.1660 0.1534 0.0000
vt 0.1299 0.1534 0.0000
vt 0.5167 0.5263 0.0000
vt 0.5167 0.5638 0.0000
vt 0.4839 0.5638 0.0000
vt 0.4839 0.5263 0.0000
vt 0.5167 0.7402 0.0000
vt 0.4839 0.7402 0.0000
vt 0.5167 0.7773 0.0000
vt 0.4839 0.7773 0.0000
vt 0.0561 0.5638 0.0000
vt 0.0561 0.5263 0.0000
vt 0.0561 0.7402 0.0000
vt 0.0561 0.7773 0.0000
vt 0.0200 0.5638 0.0000
vt 0.0200 0.5263 0.0000
vt 0.0200 0.7402 0.0000
vt 0.0200 0.7773 0.0000
vt 0.0200 0.1770 0.0000
vt 0.0576 0.1770 0.0000
vt 0.0576 0.2021 0.0000
vt 0.0200 0.2021 0.0000
vt 0.2338 0.1770 0.0000
vt 0.2338 0.2021 0.0000
vt 0.2709 0.1770 0.0000
vt 0.2709 0.2021 0.0000
vt 0.0200 0.9549 0.0000
vt 0.0528 0.9549 0.0000
vt 0.0528 0.9800 0.0000
vt 0.0200 0.9800 0.0000
vt 0.4804 0.9355 0.0000
vt 0.4804 0.9606 0.0000
vt 0.5164 0.9355 0.0000
vt 0.5164 0.9606 0.0000
vt 0.0200 0.4713 0.0000
vt 0.0576 0.4713 0.0000
vt 0.0576 0.4967 0.0000
vt 0.0200 0.4967 0.0000
vt 0.2361 0.4713 0.0000
vt 0.2361 0.4967 0.0000
vt 0.2742 0.4713 0.0000
vt 0.2742 0.4967 0.0000
vt 0.4666 0.1740 0.0000
vt 0.5026 0.1740 0.0000
vt 0.5026 0.1991 0.0000
vt 0.4666 0.1991 0.0000
vt 0.9302 0.1935 0.0000
vt 0.9302 0.2185 0.0000
vt 0.9630 0.1935 0.0000
vt 0.9630 0.2185 0.0000
vt 0.9302 0.0365 0.0000
vt 0.9630 0.0365 0.0000
vt 0.3910 0.1935 0.0000
vt 0.3534 0.1935 0.0000
vt 0.3534 0.0365 0.0000
vt 0.3910 0.0365 0.0000
vt 0.6249 0.6915 0.0000
vt 0.5921 0.6915 0.0000
vt 0.5921 0.5345 0.0000
vt 0.6249 0.5345 0.0000
vt 0.0200 0.0200 0.0000
vt 0.0576 0.0200 0.0000
vt 0.5714 0.6915 0.0000
vt 0.5386 0.6915 0.0000
vt 0.5386 0.5345 0.0000
vt 0.5714 0.5345 0.0000
vt 0.3288 0.1935 0.0000
vt 0.2917 0.1935 0.0000
vt 0.2917 0.0365 0.0000
vt 0.3288 0.0365 0.0000
vt 0.0200 0.7979 0.0000
vt 0.0528 0.7979 0.0000
vt 0.2338 0.0200 0.0000
vt 0.2709 0.0200 0.0000
vt 0.7459 0.6746 0.0000
vt 0.7074 0.6746 0.0000
vt 0.7074 0.5345 0.0000
vt 0.7459 0.5345 0.0000
vt 0.4316 0.0374 0.0000
vt 0.4677 0.0374 0.0000
vt 0.2361 0.3328 0.0000
vt 0.2742 0.3328 0.0000
vt 0.8052 0.6712 0.0000
vt 0.7691 0.6712 0.0000
vt 0.8041 0.5345 0.0000
vt 0.8401 0.5345 0.0000
vt 0.6837 0.6746 0.0000
vt 0.6456 0.6746 0.0000
vt 0.6456 0.5345 0.0000
vt 0.6837 0.5345 0.0000
vt 0.3792 0.4942 0.0000
vt 0.3431 0.4942 0.0000
vt 0.3081 0.3575 0.0000
vt 0.3442 0.3575 0.0000
vt 0.0200 0.3328 0.0000
vt 0.0576 0.3328 0.0000
vt 0.5154 0.7988 0.0000
vt 0.5514 0.7988 0.0000
# 124 texture coords

o Box002
g Box002
usemtl wire_115115115
s 2
f 1/1/1 2/2/2 3/3/3 4/4/4 
f 5/5/5 6/6/6 7/7/7 8/8/8 
f 9/9/1 10/10/2 11/11/3 12/12/4 
f 13/13/9 14/14/10 15/15/11 6/6/6 
f 6/6/6 15/15/11 16/16/12 7/7/7 
f 7/7/7 16/16/12 17/17/13 18/18/14 
f 19/19/15 20/20/16 21/21/17 22/22/18 
f 15/15/11 23/23/19 24/24/20 16/16/12 
f 25/25/15 26/26/16 27/27/17 28/28/18 
s 4
f 29/29/21 30/30/22 31/31/23 32/32/24 
f 30/30/22 33/33/22 34/34/23 31/31/23 
f 33/33/22 35/35/25 36/36/26 34/34/23 
f 32/32/24 31/31/23 37/37/23 38/38/27 
f 31/31/23 34/34/23 39/39/23 37/37/23 
f 34/34/23 36/36/26 40/40/28 39/39/23 
f 38/38/27 37/37/23 41/41/29 42/42/30 
f 37/37/23 39/39/23 43/43/29 41/41/29 
f 39/39/23 40/40/28 44/44/31 43/43/29 
s 8
f 45/45/32 5/46/5 30/47/22 29/48/21 
f 5/46/5 8/49/8 33/50/22 30/47/22 
f 8/49/8 46/51/33 35/52/25 33/50/22 
s 16
f 46/53/33 18/54/14 36/55/26 35/56/25 
f 18/54/14 17/57/13 40/58/28 36/55/26 
f 17/57/13 47/59/34 44/60/31 40/58/28 
s 32
f 47/61/34 24/62/20 43/63/29 44/64/31 
f 24/62/20 23/65/19 41/66/29 43/63/29 
f 23/65/19 48/67/35 42/68/30 41/66/29 
s 64
f 48/69/35 14/70/10 38/71/27 42/72/30 
f 14/70/10 13/73/9 32/74/24 38/71/27 
f 13/73/9 45/75/32 29/76/21 32/74/24 
s off
f 45/75/32 13/73/9 2/77/2 1/78/1 
f 13/79/9 6/80/6 3/81/3 2/82/2 
f 6/83/6 5/84/5 4/85/4 3/86/3 
f 5/46/5 45/45/32 1/87/1 4/88/4 
f 8/89/8 7/90/7 10/91/2 9/92/1 
f 7/93/7 18/94/14 11/95/3 10/96/2 
f 18/54/14 46/53/33 12/97/4 11/98/3 
f 46/51/33 8/49/8 9/99/1 12/100/4 
f 15/101/11 14/102/10 19/103/15 22/104/18 
f 14/70/10 48/69/35 20/105/16 19/106/15 
f 48/67/35 23/65/19 21/107/17 20/108/16 
f 23/109/19 15/110/11 22/111/18 21/112/17 
f 17/113/13 16/114/12 25/115/15 28/116/18 
f 16/117/12 24/118/20 26/119/16 25/120/15 
f 24/62/20 47/61/34 27/121/17 26/122/16 
f 47/59/34 17/57/13 28/123/18 27/124/17 
# 46 polygons

