# 3ds Max Wavefront OBJ Exporter v0.97b - (c)2007 guruware
# File Created: 10.05.2017 15:08:15

mtllib new tv.mtl

#
# object Box001
#

v  -2.0058 -0.2769 0.0376
v  -2.0058 -0.2481 -0.0872
v  -1.5614 -0.1874 -0.0872
v  -1.5614 -0.2054 0.0376
v  -1.1170 -0.0199 -0.0872
v  -1.1170 -0.0204 0.0376
v  -0.6726 0.1419 -0.0872
v  -0.6726 0.1594 0.0376
v  -0.2282 0.1963 -0.0872
v  -0.2282 0.2247 0.0376
v  0.2162 0.1963 -0.0872
v  0.2162 0.2247 0.0376
v  0.6606 0.1419 -0.0872
v  0.6606 0.1594 0.0376
v  1.1050 -0.0199 -0.0872
v  1.1050 -0.0204 0.0376
v  1.5494 -0.1874 -0.0872
v  1.5494 -0.2054 0.0376
v  1.9938 -0.2481 -0.0872
v  1.9938 -0.2769 0.0376
v  -2.0058 1.8777 0.0376
v  -1.5614 1.8062 0.0376
v  -1.5614 1.7808 -0.0872
v  -2.0058 1.8488 -0.0872
v  -1.1170 1.6210 0.0376
v  -1.1170 1.6015 -0.0872
v  -0.6726 1.4412 0.0376
v  -0.6726 1.4291 -0.0872
v  -0.2282 1.3760 0.0376
v  -0.2282 1.3669 -0.0872
v  0.2162 1.3760 0.0376
v  0.2162 1.3669 -0.0872
v  0.6606 1.4412 0.0376
v  0.6606 1.4291 -0.0872
v  1.1050 1.6210 0.0376
v  1.1050 1.6015 -0.0872
v  1.5494 1.8062 0.0376
v  1.5494 1.7808 -0.0872
v  1.9938 1.8777 0.0376
v  1.9938 1.8488 -0.0872
v  -1.5614 0.4643 0.0376
v  -2.0058 0.4413 0.0376
v  -1.1170 0.0989 0.0376
v  -0.6726 0.2533 0.0376
v  -0.2282 0.3101 0.0376
v  0.2162 0.3101 0.0376
v  0.6606 0.2533 0.0376
v  1.1050 0.0989 0.0376
v  1.5494 0.4643 0.0376
v  1.9938 0.4413 0.0376
v  -1.5614 1.1365 0.0376
v  -2.0058 1.1595 0.0376
v  -1.1170 1.5018 0.0376
v  -1.1010 0.1214 -0.0049
v  -0.6763 0.2689 -0.0049
v  -0.6762 1.3317 -0.0049
v  -1.1010 1.4793 -0.0049
v  -0.2292 0.3261 -0.0049
v  -0.2292 1.2747 -0.0049
v  0.2173 0.3261 -0.0049
v  0.2172 1.2747 -0.0049
v  0.6643 0.2689 -0.0049
v  0.6643 1.3317 -0.0049
v  1.0890 0.1214 -0.0049
v  1.0890 1.4793 -0.0049
v  1.5494 1.1365 0.0376
v  1.1050 1.5018 0.0376
v  1.9938 1.1595 0.0376
v  -0.6726 1.3474 0.0376
v  -0.2282 1.2907 0.0376
v  0.2162 1.2907 0.0376
v  0.6606 1.3474 0.0376
v  2.7835 -0.2769 0.0376
v  2.7835 -0.2481 -0.0872
v  2.7835 0.4509 -0.0872
v  2.7835 0.4413 0.0376
v  2.7835 1.1499 -0.0872
v  2.7835 1.1595 0.0376
v  2.7835 1.8488 -0.0872
v  2.7835 1.8777 0.0376
v  1.5494 0.4704 -0.0872
v  1.9938 0.4509 -0.0872
v  1.1050 0.5260 -0.0872
v  0.6606 0.5804 -0.0872
v  0.2162 0.5990 -0.0872
v  -0.2282 0.5990 -0.0872
v  -0.6726 0.5804 -0.0872
v  -1.1170 0.5260 -0.0872
v  -1.5614 0.4704 -0.0872
v  -2.0058 0.4509 -0.0872
v  1.5494 1.1303 -0.0872
v  1.9938 1.1499 -0.0872
v  1.1050 1.0746 -0.0872
v  0.6606 1.0202 -0.0872
v  0.2162 1.0017 -0.0872
v  -0.2282 1.0017 -0.0872
v  -0.6726 1.0202 -0.0872
v  -1.1170 1.0746 -0.0872
v  -1.5614 1.1303 -0.0872
v  -2.0058 1.1499 -0.0872
v  -2.7955 -0.2481 -0.0872
v  -2.7955 -0.2769 0.0376
v  -2.7955 0.4413 0.0376
v  -2.7955 0.4509 -0.0872
v  -2.7955 1.1595 0.0376
v  -2.7955 1.1499 -0.0872
v  -2.7955 1.8777 0.0376
v  -2.7955 1.8488 -0.0872
v  -0.6763 0.2689 0.0376
v  -1.1010 0.1214 0.0376
v  -0.2292 0.3261 0.0376
v  0.2173 0.3261 0.0376
v  0.6643 0.2689 0.0376
v  1.0890 0.1214 0.0376
v  1.0890 1.4793 0.0376
v  0.6643 1.3317 0.0376
v  0.2172 1.2747 0.0376
v  -0.2292 1.2747 0.0376
v  -0.6762 1.3317 0.0376
v  -1.1010 1.4793 0.0376
v  2.1157 -0.2481 -0.0872
v  2.0465 -0.2769 0.0376
v  2.1157 0.4509 -0.0872
v  2.1157 1.1499 -0.0872
v  2.1157 1.8488 -0.0872
v  2.0465 1.8777 0.0376
v  2.0465 1.1595 0.0376
v  2.0465 0.4413 0.0376
v  -2.0616 -0.2769 0.0376
v  -2.0616 -0.2481 -0.0872
v  -2.0616 0.4413 0.0376
v  -2.0616 1.1595 0.0376
v  -2.0616 1.8777 0.0376
v  -2.0616 1.8488 -0.0872
v  -2.0616 1.1499 -0.0872
v  -2.0616 0.4509 -0.0872
v  -2.6995 -0.2769 0.0376
v  -2.6995 -0.2481 -0.0872
v  -2.6995 0.4413 0.0376
v  -2.6995 1.1595 0.0376
v  -2.6995 1.8777 0.0376
v  -2.6995 1.8488 -0.0872
v  -2.6995 1.1499 -0.0872
v  -2.6995 0.4509 -0.0872
v  -2.1440 0.3502 0.0216
v  -2.6171 0.3502 0.0216
v  -2.6171 -0.1857 0.0216
v  -2.1440 -0.1857 0.0216
v  -2.1440 1.0684 0.0216
v  -2.6171 1.0684 0.0216
v  -2.6171 0.5325 0.0216
v  -2.1440 0.5325 0.0216
v  -2.1440 1.7866 0.0216
v  -2.6171 1.7866 0.0216
v  -2.6171 1.2507 0.0216
v  -2.1440 1.2507 0.0216
v  2.7145 -0.2481 -0.0872
v  2.6986 -0.2769 0.0376
v  2.7145 0.4509 -0.0872
v  2.7145 1.1499 -0.0872
v  2.7145 1.8488 -0.0872
v  2.6986 1.8777 0.0376
v  2.1304 1.2507 0.0216
v  2.6147 1.2507 0.0216
v  2.6147 1.7866 0.0216
v  2.1304 1.7866 0.0216
v  2.1304 0.5325 0.0216
v  2.6147 0.5325 0.0216
v  2.6147 1.0684 0.0216
v  2.1304 1.0684 0.0216
v  2.1304 -0.1857 0.0216
v  2.6147 -0.1857 0.0216
v  2.6147 0.3502 0.0216
v  2.1304 0.3502 0.0216
v  2.6986 1.1595 0.0376
v  2.6986 0.4413 0.0376
v  -2.6835 0.4253 0.0376
v  -2.0776 0.4253 0.0376
v  -2.6835 -0.2609 0.0376
v  -2.0776 -0.2609 0.0376
v  -2.6835 1.1435 0.0376
v  -2.0776 1.1435 0.0376
v  -2.6835 0.4573 0.0376
v  -2.0776 0.4573 0.0376
v  -2.6835 1.8617 0.0376
v  -2.0776 1.8617 0.0376
v  -2.6835 1.1755 0.0376
v  -2.0776 1.1755 0.0376
v  2.6826 1.1755 0.0376
v  2.0625 1.1755 0.0376
v  2.6826 1.8617 0.0376
v  2.0625 1.8617 0.0376
v  2.6826 0.4573 0.0376
v  2.0625 0.4573 0.0376
v  2.6826 1.1435 0.0376
v  2.0625 1.1435 0.0376
v  2.6826 -0.2609 0.0376
v  2.0625 -0.2609 0.0376
v  2.6826 0.4253 0.0376
v  2.0625 0.4253 0.0376
# 200 vertices

vn 0.0627 -0.7944 0.6042
vn 0.0437 -0.6372 -0.7694
vn 0.1690 -0.6601 -0.7319
vn 0.2102 -0.7476 0.6299
vn 0.2448 -0.6608 -0.7095
vn 0.2685 -0.6542 0.7071
vn 0.1715 -0.7074 -0.6857
vn 0.1629 -0.6062 0.7785
vn 0.0473 -0.7677 -0.6390
vn 0.0437 -0.6040 0.7958
vn -0.0473 -0.7677 -0.6390
vn -0.0437 -0.6040 0.7958
vn -0.1715 -0.7074 -0.6857
vn -0.1629 -0.6062 0.7785
vn -0.2448 -0.6608 -0.7095
vn -0.2685 -0.6542 0.7071
vn -0.1690 -0.6601 -0.7319
vn -0.2102 -0.7476 0.6299
vn -0.0437 -0.6372 -0.7694
vn -0.0627 -0.7944 0.6042
vn 0.0629 0.7946 0.6039
vn 0.2141 0.7640 0.6087
vn 0.1776 0.6376 -0.7496
vn 0.0491 0.6384 -0.7682
vn 0.2869 0.6984 0.6557
vn 0.2400 0.6069 -0.7577
vn 0.1878 0.6865 0.7024
vn 0.1611 0.6238 -0.7648
vn 0.0523 0.7137 0.6985
vn 0.0460 0.6627 -0.7475
vn -0.0523 0.7137 0.6985
vn -0.0460 0.6627 -0.7475
vn -0.1878 0.6865 0.7024
vn -0.1611 0.6238 -0.7648
vn -0.2869 0.6984 0.6557
vn -0.2400 0.6069 -0.7577
vn -0.2141 0.7640 0.6087
vn -0.1776 0.6376 -0.7496
vn -0.0629 0.7946 0.6039
vn -0.0491 0.6384 -0.7682
vn 0.0000 0.0000 1.0000
vn -0.0000 0.0000 1.0000
vn 0.0000 -0.0000 1.0000
vn 0.4795 0.6741 0.5618
vn -0.1560 0.6642 0.7311
vn -0.1559 -0.6641 0.7312
vn 0.4795 -0.6742 0.5618
vn -0.0440 0.6908 0.7217
vn -0.0439 -0.6909 0.7217
vn 0.0440 0.6908 0.7217
vn 0.0439 -0.6908 0.7217
vn 0.1560 0.6642 0.7311
vn 0.1559 -0.6641 0.7312
vn -0.4795 0.6741 0.5618
vn -0.4794 -0.6743 0.5617
vn -0.0000 -0.0000 1.0000
vn 0.5664 -0.6449 0.5131
vn 0.5902 -0.5026 -0.6317
vn 0.7071 0.0000 -0.7071
vn 0.7071 0.0000 0.7071
vn 0.7071 -0.0000 -0.7071
vn 0.7071 -0.0000 0.7071
vn 0.5902 0.5024 -0.6319
vn 0.5664 0.6451 0.5129
vn 0.0000 0.0000 -1.0000
vn 0.0000 -0.0000 -1.0000
vn -0.5902 -0.5026 -0.6317
vn -0.5664 -0.6449 0.5131
vn -0.7071 0.0000 0.7071
vn -0.7071 0.0000 -0.7071
vn -0.5664 0.6451 0.5129
vn -0.5903 0.5022 -0.6319
vn -0.1667 0.7097 0.6845
vn 0.1967 0.2766 0.9406
vn -0.0459 0.7194 0.6930
vn 0.0458 0.7194 0.6931
vn 0.1667 0.7097 0.6845
vn -0.1968 0.2765 0.9407
vn -0.1967 -0.2765 0.9407
vn 0.1667 -0.7097 0.6845
vn 0.0457 -0.7194 0.6931
vn -0.0457 -0.7194 0.6931
vn -0.1666 -0.7097 0.6845
vn 0.1967 -0.2766 0.9407
vn 0.0000 -0.6226 -0.7826
vn 0.0000 -0.7826 0.6226
vn 0.0000 0.6223 -0.7828
vn 0.0000 0.7828 0.6223
vn 0.0000 0.7827 0.6224
vn 0.0000 0.6222 -0.7829
vn -0.0911 -0.0768 0.9929
vn 0.0911 -0.0768 0.9929
vn 0.0911 0.0768 0.9929
vn -0.0911 0.0768 0.9929
vn -0.0000 -0.7826 0.6226
vn -0.0000 0.7828 0.6223
vn 0.0887 0.0772 0.9931
vn -0.0887 0.0772 0.9931
vn -0.0887 -0.0772 0.9931
vn 0.0887 -0.0772 0.9931
vn 0.0275 -0.0285 0.9992
vn -0.0275 -0.0285 0.9992
vn 0.0275 0.0285 0.9992
vn -0.0275 0.0285 0.9992
vn -0.0273 0.0281 0.9992
vn 0.0273 0.0281 0.9992
vn -0.0273 -0.0281 0.9992
vn 0.0273 -0.0281 0.9992
# 108 vertex normals

vt 0.1413 0.0827 0.0000
vt 0.1413 0.0635 0.0000
vt 0.2096 0.0635 0.0000
vt 0.2096 0.0827 0.0000
vt 0.2778 0.0635 0.0000
vt 0.2778 0.0827 0.0000
vt 0.3461 0.0635 0.0000
vt 0.3461 0.0827 0.0000
vt 0.4143 0.0635 0.0000
vt 0.4143 0.0827 0.0000
vt 0.4826 0.0635 0.0000
vt 0.4826 0.0827 0.0000
vt 0.5509 0.0635 0.0000
vt 0.5509 0.0827 0.0000
vt 0.6191 0.0635 0.0000
vt 0.6191 0.0827 0.0000
vt 0.6874 0.0635 0.0000
vt 0.6874 0.0827 0.0000
vt 0.7556 0.0635 0.0000
vt 0.7556 0.0827 0.0000
vt 0.1414 0.0200 0.0000
vt 0.2098 0.0200 0.0000
vt 0.2098 0.0392 0.0000
vt 0.1414 0.0392 0.0000
vt 0.2781 0.0200 0.0000
vt 0.2781 0.0392 0.0000
vt 0.3465 0.0200 0.0000
vt 0.3465 0.0392 0.0000
vt 0.4148 0.0200 0.0000
vt 0.4148 0.0392 0.0000
vt 0.4831 0.0200 0.0000
vt 0.4831 0.0392 0.0000
vt 0.5515 0.0200 0.0000
vt 0.5515 0.0392 0.0000
vt 0.6198 0.0200 0.0000
vt 0.6198 0.0392 0.0000
vt 0.6882 0.0200 0.0000
vt 0.6882 0.0392 0.0000
vt 0.7565 0.0200 0.0000
vt 0.7565 0.0392 0.0000
vt 0.1384 0.1071 0.0000
vt 0.2051 0.1178 0.0000
vt 0.2051 0.2182 0.0000
vt 0.1384 0.2148 0.0000
vt 0.2718 0.1455 0.0000
vt 0.2718 0.1634 0.0000
vt 0.3384 0.1725 0.0000
vt 0.3384 0.1866 0.0000
vt 0.4051 0.1823 0.0000
vt 0.4051 0.1951 0.0000
vt 0.4717 0.1823 0.0000
vt 0.4717 0.1951 0.0000
vt 0.5384 0.1725 0.0000
vt 0.5384 0.1866 0.0000
vt 0.6050 0.1455 0.0000
vt 0.6050 0.1634 0.0000
vt 0.6717 0.1178 0.0000
vt 0.6717 0.2182 0.0000
vt 0.7384 0.1071 0.0000
vt 0.7384 0.2148 0.0000
vt 0.2051 0.3191 0.0000
vt 0.1384 0.3225 0.0000
vt 0.2718 0.3739 0.0000
vt 0.6252 0.4423 0.0000
vt 0.6889 0.4644 0.0000
vt 0.6889 0.6238 0.0000
vt 0.6252 0.6459 0.0000
vt 0.7559 0.4730 0.0000
vt 0.7559 0.6152 0.0000
vt 0.8228 0.4730 0.0000
vt 0.8228 0.6152 0.0000
vt 0.8898 0.4644 0.0000
vt 0.8898 0.6238 0.0000
vt 0.9535 0.4423 0.0000
vt 0.9535 0.6459 0.0000
vt 0.6717 0.3191 0.0000
vt 0.6050 0.3739 0.0000
vt 0.7384 0.3225 0.0000
vt 0.2051 0.4195 0.0000
vt 0.1384 0.4302 0.0000
vt 0.2718 0.3917 0.0000
vt 0.3384 0.3507 0.0000
vt 0.3384 0.3648 0.0000
vt 0.4051 0.3422 0.0000
vt 0.4051 0.3550 0.0000
vt 0.4717 0.3422 0.0000
vt 0.4717 0.3550 0.0000
vt 0.5384 0.3507 0.0000
vt 0.5384 0.3648 0.0000
vt 0.6050 0.3917 0.0000
vt 0.6717 0.4195 0.0000
vt 0.7384 0.4302 0.0000
vt 0.3430 0.5816 0.0000
vt 0.3387 0.6004 0.0000
vt 0.2339 0.6004 0.0000
vt 0.2354 0.5816 0.0000
vt 0.1291 0.6004 0.0000
vt 0.1277 0.5816 0.0000
vt 0.0243 0.6004 0.0000
vt 0.0200 0.5816 0.0000
vt 0.1384 0.6557 0.0000
vt 0.2050 0.6647 0.0000
vt 0.2050 0.7634 0.0000
vt 0.1384 0.7604 0.0000
vt 0.2717 0.6899 0.0000
vt 0.2717 0.7717 0.0000
vt 0.3383 0.7141 0.0000
vt 0.3383 0.7799 0.0000
vt 0.4049 0.7223 0.0000
vt 0.4049 0.7826 0.0000
vt 0.4715 0.7223 0.0000
vt 0.4715 0.7826 0.0000
vt 0.5382 0.7141 0.0000
vt 0.5382 0.7799 0.0000
vt 0.6048 0.6899 0.0000
vt 0.6048 0.7717 0.0000
vt 0.6714 0.6647 0.0000
vt 0.6714 0.7634 0.0000
vt 0.7381 0.6557 0.0000
vt 0.7381 0.7604 0.0000
vt 0.2050 0.8623 0.0000
vt 0.1384 0.8652 0.0000
vt 0.2717 0.8540 0.0000
vt 0.3383 0.8458 0.0000
vt 0.4049 0.8430 0.0000
vt 0.4715 0.8430 0.0000
vt 0.5382 0.8458 0.0000
vt 0.6048 0.8540 0.0000
vt 0.6714 0.8623 0.0000
vt 0.7381 0.8652 0.0000
vt 0.2050 0.9598 0.0000
vt 0.1384 0.9700 0.0000
vt 0.2717 0.9330 0.0000
vt 0.3383 0.9071 0.0000
vt 0.4049 0.8978 0.0000
vt 0.4715 0.8978 0.0000
vt 0.5382 0.9071 0.0000
vt 0.6048 0.9330 0.0000
vt 0.6714 0.9598 0.0000
vt 0.7381 0.9700 0.0000
vt 0.3387 0.5337 0.0000
vt 0.3430 0.5525 0.0000
vt 0.2354 0.5525 0.0000
vt 0.2339 0.5337 0.0000
vt 0.1277 0.5525 0.0000
vt 0.1291 0.5337 0.0000
vt 0.0200 0.5525 0.0000
vt 0.0243 0.5337 0.0000
vt 0.3379 0.1889 0.0000
vt 0.2742 0.1668 0.0000
vt 0.4049 0.1975 0.0000
vt 0.4719 0.1975 0.0000
vt 0.5389 0.1889 0.0000
vt 0.6026 0.1668 0.0000
vt 0.6026 0.3705 0.0000
vt 0.5389 0.3483 0.0000
vt 0.4719 0.3398 0.0000
vt 0.4049 0.3398 0.0000
vt 0.3379 0.3483 0.0000
vt 0.2742 0.3705 0.0000
vt 0.0200 0.6252 0.0000
vt 0.0852 0.6252 0.0000
vt 0.0852 0.6317 0.0000
vt 0.0200 0.6317 0.0000
vt 0.1538 0.6252 0.0000
vt 0.1538 0.6317 0.0000
vt 0.2223 0.6252 0.0000
vt 0.2223 0.6317 0.0000
vt 0.2910 0.6252 0.0000
vt 0.2910 0.6317 0.0000
vt 0.3561 0.6252 0.0000
vt 0.3561 0.6317 0.0000
vt 0.5051 0.2254 0.0000
vt 0.3015 0.2254 0.0000
vt 0.3015 0.2191 0.0000
vt 0.5051 0.2191 0.0000
vt 0.5913 0.9800 0.0000
vt 0.5261 0.9800 0.0000
vt 0.5261 0.9735 0.0000
vt 0.5913 0.9735 0.0000
vt 0.4574 0.9800 0.0000
vt 0.4574 0.9735 0.0000
vt 0.3889 0.9800 0.0000
vt 0.3889 0.9735 0.0000
vt 0.3203 0.9800 0.0000
vt 0.3203 0.9735 0.0000
vt 0.2551 0.9800 0.0000
vt 0.2551 0.9735 0.0000
vt 0.3015 0.2416 0.0000
vt 0.5051 0.2416 0.0000
vt 0.5051 0.2479 0.0000
vt 0.3015 0.2479 0.0000
vt 0.7744 0.0635 0.0000
vt 0.7637 0.0827 0.0000
vt 0.1201 0.7604 0.0000
vt 0.1201 0.6557 0.0000
vt 0.1201 0.8652 0.0000
vt 0.1201 0.9700 0.0000
vt 0.7646 0.0200 0.0000
vt 0.7752 0.0392 0.0000
vt 0.7463 0.3225 0.0000
vt 0.7463 0.4302 0.0000
vt 0.7463 0.2148 0.0000
vt 0.7463 0.1071 0.0000
vt 0.1327 0.0827 0.0000
vt 0.1327 0.0635 0.0000
vt 0.1301 0.2148 0.0000
vt 0.1301 0.1071 0.0000
vt 0.1301 0.3225 0.0000
vt 0.1301 0.4302 0.0000
vt 0.1329 0.0392 0.0000
vt 0.1329 0.0200 0.0000
vt 0.7464 0.8652 0.0000
vt 0.7464 0.9700 0.0000
vt 0.7464 0.7604 0.0000
vt 0.7464 0.6557 0.0000
vt 0.0347 0.0827 0.0000
vt 0.0200 0.0827 0.0000
vt 0.0200 0.0635 0.0000
vt 0.0347 0.0635 0.0000
vt 0.0344 0.2148 0.0000
vt 0.0200 0.2148 0.0000
vt 0.0200 0.1071 0.0000
vt 0.0344 0.1071 0.0000
vt 0.0344 0.3225 0.0000
vt 0.0200 0.3225 0.0000
vt 0.0344 0.4302 0.0000
vt 0.0200 0.4302 0.0000
vt 0.0348 0.0392 0.0000
vt 0.0200 0.0392 0.0000
vt 0.0200 0.0200 0.0000
vt 0.0348 0.0200 0.0000
vt 0.8421 0.8652 0.0000
vt 0.8565 0.8652 0.0000
vt 0.8565 0.9700 0.0000
vt 0.8421 0.9700 0.0000
vt 0.8421 0.7604 0.0000
vt 0.8565 0.7604 0.0000
vt 0.8421 0.6557 0.0000
vt 0.8565 0.6557 0.0000
vt 0.1177 0.2011 0.0000
vt 0.0467 0.2011 0.0000
vt 0.0467 0.1208 0.0000
vt 0.1177 0.1208 0.0000
vt 0.1177 0.3088 0.0000
vt 0.0467 0.3088 0.0000
vt 0.0467 0.2285 0.0000
vt 0.1177 0.2285 0.0000
vt 0.1177 0.4166 0.0000
vt 0.0467 0.4166 0.0000
vt 0.0467 0.3362 0.0000
vt 0.1177 0.3362 0.0000
vt 0.8663 0.0635 0.0000
vt 0.8639 0.0827 0.0000
vt 0.0304 0.7604 0.0000
vt 0.0304 0.6557 0.0000
vt 0.0304 0.8652 0.0000
vt 0.0304 0.9700 0.0000
vt 0.8649 0.0200 0.0000
vt 0.8673 0.0392 0.0000
vt 0.7588 0.3362 0.0000
vt 0.8315 0.3362 0.0000
vt 0.8315 0.4166 0.0000
vt 0.7588 0.4166 0.0000
vt 0.7588 0.2285 0.0000
vt 0.8315 0.2285 0.0000
vt 0.8315 0.3088 0.0000
vt 0.7588 0.3088 0.0000
vt 0.7588 0.1208 0.0000
vt 0.8315 0.1208 0.0000
vt 0.8315 0.2011 0.0000
vt 0.7588 0.2011 0.0000
vt 0.8769 0.0635 0.0000
vt 0.8769 0.0827 0.0000
vt 0.0200 0.7604 0.0000
vt 0.0200 0.6557 0.0000
vt 0.0200 0.8652 0.0000
vt 0.0200 0.9700 0.0000
vt 0.8779 0.0200 0.0000
vt 0.8779 0.0392 0.0000
vt 0.8441 0.3225 0.0000
vt 0.8568 0.3225 0.0000
vt 0.8568 0.4302 0.0000
vt 0.8441 0.4302 0.0000
vt 0.8441 0.2148 0.0000
vt 0.8568 0.2148 0.0000
vt 0.8441 0.1071 0.0000
vt 0.8568 0.1071 0.0000
vt 0.0368 0.2124 0.0000
vt 0.1277 0.2124 0.0000
vt 0.0368 0.1095 0.0000
vt 0.1277 0.1095 0.0000
vt 0.0368 0.3201 0.0000
vt 0.1277 0.3201 0.0000
vt 0.0368 0.2172 0.0000
vt 0.1277 0.2172 0.0000
vt 0.0368 0.4278 0.0000
vt 0.1277 0.4278 0.0000
vt 0.0368 0.3249 0.0000
vt 0.1277 0.3249 0.0000
vt 0.8417 0.3249 0.0000
vt 0.7487 0.3249 0.0000
vt 0.8417 0.4278 0.0000
vt 0.7487 0.4278 0.0000
vt 0.8417 0.2172 0.0000
vt 0.7487 0.2172 0.0000
vt 0.8417 0.3201 0.0000
vt 0.7487 0.3201 0.0000
vt 0.8417 0.1095 0.0000
vt 0.7487 0.1095 0.0000
vt 0.8417 0.2124 0.0000
vt 0.7487 0.2124 0.0000
# 312 texture coords

o Box001
g Box001
usemtl wire_000000000
s 2
f 1/1/1 2/2/2 3/3/3 4/4/4 
f 4/4/4 3/3/3 5/5/5 6/6/6 
f 6/6/6 5/5/5 7/7/7 8/8/8 
f 8/8/8 7/7/7 9/9/9 10/10/10 
f 10/10/10 9/9/9 11/11/11 12/12/12 
f 12/12/12 11/11/11 13/13/13 14/14/14 
f 14/14/14 13/13/13 15/15/15 16/16/16 
f 16/16/16 15/15/15 17/17/17 18/18/18 
f 18/18/18 17/17/17 19/19/19 20/20/20 
s 4
f 21/21/21 22/22/22 23/23/23 24/24/24 
f 22/22/22 25/25/25 26/26/26 23/23/23 
f 25/25/25 27/27/27 28/28/28 26/26/26 
f 27/27/27 29/29/29 30/30/30 28/28/28 
f 29/29/29 31/31/31 32/32/32 30/30/30 
f 31/31/31 33/33/33 34/34/34 32/32/32 
f 33/33/33 35/35/35 36/36/36 34/34/34 
f 35/35/35 37/37/37 38/38/38 36/36/36 
f 37/37/37 39/39/39 40/40/40 38/38/38 
s 8
f 1/41/1 4/42/4 41/43/41 42/44/41 
f 4/42/4 6/45/6 43/46/41 41/43/41 
f 6/45/6 8/47/8 44/48/42 43/46/41 
f 8/47/8 10/49/10 45/50/42 44/48/42 
f 10/49/10 12/51/12 46/52/41 45/50/42 
f 12/51/12 14/53/14 47/54/41 46/52/41 
f 14/53/14 16/55/16 48/56/42 47/54/41 
f 16/55/16 18/57/18 49/58/42 48/56/42 
f 18/57/18 20/59/20 50/60/41 49/58/42 
f 42/44/41 41/43/41 51/61/41 52/62/41 
f 41/43/41 43/46/41 53/63/43 51/61/41 
f 54/64/44 55/65/45 56/66/46 57/67/47 
f 55/65/45 58/68/48 59/69/49 56/66/46 
f 58/68/48 60/70/50 61/71/51 59/69/49 
f 60/70/50 62/72/52 63/73/53 61/71/51 
f 62/72/52 64/74/54 65/75/55 63/73/53 
f 48/56/42 49/58/42 66/76/42 67/77/56 
f 49/58/42 50/60/41 68/78/43 66/76/42 
f 52/62/41 51/61/41 22/79/22 21/80/21 
f 51/61/41 53/63/43 25/81/25 22/79/22 
f 53/63/43 69/82/56 27/83/27 25/81/25 
f 69/82/56 70/84/56 29/85/29 27/83/27 
f 70/84/56 71/86/43 31/87/31 29/85/29 
f 71/86/43 72/88/43 33/89/33 31/87/31 
f 72/88/43 67/77/56 35/90/35 33/89/33 
f 67/77/56 66/76/42 37/91/37 35/90/35 
f 66/76/42 68/78/43 39/92/39 37/91/37 
s 16
f 73/93/57 74/94/58 75/95/59 76/96/60 
f 76/96/60 75/95/59 77/97/61 78/98/62 
f 78/98/62 77/97/61 79/99/63 80/100/64 
s 32
f 19/101/19 17/102/17 81/103/65 82/104/65 
f 17/102/17 15/105/15 83/106/65 81/103/65 
f 15/105/15 13/107/13 84/108/65 83/106/65 
f 13/107/13 11/109/11 85/110/65 84/108/65 
f 11/109/11 9/111/9 86/112/65 85/110/65 
f 9/111/9 7/113/7 87/114/65 86/112/65 
f 7/113/7 5/115/5 88/116/65 87/114/65 
f 5/115/5 3/117/3 89/118/65 88/116/65 
f 3/117/3 2/119/2 90/120/65 89/118/65 
f 82/104/65 81/103/65 91/121/65 92/122/66 
f 81/103/65 83/106/65 93/123/65 91/121/65 
f 83/106/65 84/108/65 94/124/65 93/123/65 
f 84/108/65 85/110/65 95/125/65 94/124/65 
f 85/110/65 86/112/65 96/126/65 95/125/65 
f 86/112/65 87/114/65 97/127/65 96/126/65 
f 87/114/65 88/116/65 98/128/65 97/127/65 
f 88/116/65 89/118/65 99/129/65 98/128/65 
f 89/118/65 90/120/65 100/130/65 99/129/65 
f 92/122/66 91/121/65 38/131/38 40/132/40 
f 91/121/65 93/123/65 36/133/36 38/131/38 
f 93/123/65 94/124/65 34/134/34 36/133/36 
f 94/124/65 95/125/65 32/135/32 34/134/34 
f 95/125/65 96/126/65 30/136/30 32/135/32 
f 96/126/65 97/127/65 28/137/28 30/136/30 
f 97/127/65 98/128/65 26/138/26 28/137/28 
f 98/128/65 99/129/65 23/139/23 26/138/26 
f 99/129/65 100/130/65 24/140/24 23/139/23 
s 64
f 101/141/67 102/142/68 103/143/69 104/144/70 
f 104/144/70 103/143/69 105/145/69 106/146/70 
f 106/146/70 105/145/69 107/147/71 108/148/72 
s off
f 43/46/41 44/48/42 109/149/73 110/150/74 
f 44/48/42 45/50/42 111/151/75 109/149/73 
f 45/50/42 46/52/41 112/152/76 111/151/75 
f 46/52/41 47/54/41 113/153/77 112/152/76 
f 47/54/41 48/56/42 114/154/78 113/153/77 
f 48/56/42 67/77/56 115/155/79 114/154/78 
f 67/77/56 72/88/43 116/156/80 115/155/79 
f 72/88/43 71/86/43 117/157/81 116/156/80 
f 71/86/43 70/84/56 118/158/82 117/157/81 
f 70/84/56 69/82/56 119/159/83 118/158/82 
f 69/82/56 53/63/43 120/160/84 119/159/83 
f 53/63/43 43/46/41 110/150/74 120/160/84 
f 110/161/74 109/162/73 55/163/45 54/164/44 
f 109/162/73 111/165/75 58/166/48 55/163/45 
f 111/165/75 112/167/76 60/168/50 58/166/48 
f 112/167/76 113/169/77 62/170/52 60/168/50 
f 113/169/77 114/171/78 64/172/54 62/170/52 
f 114/173/78 115/174/79 65/175/55 64/176/54 
f 115/177/79 116/178/80 63/179/53 65/180/55 
f 116/178/80 117/181/81 61/182/51 63/179/53 
f 117/181/81 118/183/82 59/184/49 61/182/51 
f 118/183/82 119/185/83 56/186/46 59/184/49 
f 119/185/83 120/187/84 57/188/47 56/186/46 
f 120/189/84 110/190/74 54/191/44 57/192/47 
f 20/20/20 19/19/19 121/193/85 122/194/86 
f 19/101/19 82/104/65 123/195/65 121/196/85 
f 82/104/65 92/122/66 124/197/66 123/195/65 
f 92/122/66 40/132/40 125/198/87 124/197/66 
f 40/40/40 39/39/39 126/199/88 125/200/87 
f 39/92/39 68/78/43 127/201/43 126/202/88 
f 68/78/43 50/60/41 128/203/41 127/201/43 
f 50/60/41 20/59/20 122/204/86 128/203/41 
f 2/2/2 1/1/1 129/205/86 130/206/85 
f 1/41/1 42/44/41 131/207/41 129/208/86 
f 42/44/41 52/62/41 132/209/41 131/207/41 
f 52/62/41 21/80/21 133/210/89 132/209/41 
f 21/21/21 24/24/24 134/211/90 133/212/89 
f 24/140/24 100/130/65 135/213/65 134/214/90 
f 100/130/65 90/120/65 136/215/65 135/213/65 
f 90/120/65 2/119/2 130/216/85 136/215/65 
f 137/217/86 102/218/68 101/219/67 138/220/85 
f 139/221/41 103/222/69 102/223/68 137/224/86 
f 140/225/41 105/226/69 103/222/69 139/221/41 
f 141/227/89 107/228/71 105/226/69 140/225/41 
f 142/229/90 108/230/72 107/231/71 141/232/89 
f 143/233/65 106/234/70 108/235/72 142/236/90 
f 144/237/65 104/238/70 106/234/70 143/233/65 
f 138/239/85 101/240/67 104/238/70 144/237/65 
f 129/205/86 137/217/86 138/220/85 130/206/85 
f 145/241/91 146/242/92 147/243/93 148/244/94 
f 149/245/91 150/246/92 151/247/93 152/248/94 
f 153/249/91 154/250/92 155/251/93 156/252/94 
f 134/211/90 142/229/90 141/232/89 133/212/89 
f 135/213/65 143/233/65 142/236/90 134/214/90 
f 136/215/65 144/237/65 143/233/65 135/213/65 
f 130/216/85 138/239/85 144/237/65 136/215/65 
f 121/193/85 157/253/85 158/254/95 122/194/86 
f 123/195/65 159/255/65 157/256/85 121/196/85 
f 124/197/66 160/257/66 159/255/65 123/195/65 
f 125/198/87 161/258/87 160/257/66 124/197/66 
f 126/199/88 162/259/96 161/260/87 125/200/87 
f 163/261/97 164/262/98 165/263/99 166/264/100 
f 167/265/97 168/266/98 169/267/99 170/268/100 
f 171/269/97 172/270/98 173/271/99 174/272/100 
f 157/253/85 74/273/58 73/274/57 158/254/95 
f 159/255/65 75/275/59 74/276/58 157/256/85 
f 160/257/66 77/277/61 75/275/59 159/255/65 
f 161/258/87 79/278/63 77/277/61 160/257/66 
f 162/259/96 80/279/64 79/280/63 161/260/87 
f 175/281/42 78/282/62 80/283/64 162/284/96 
f 176/285/56 76/286/60 78/282/62 175/281/42 
f 158/287/95 73/288/57 76/286/60 176/285/56 
f 131/207/41 139/221/41 177/289/101 178/290/102 
f 139/221/41 137/224/86 179/291/103 177/289/101 
f 137/224/86 129/208/86 180/292/104 179/291/103 
f 129/208/86 131/207/41 178/290/102 180/292/104 
f 132/209/41 140/225/41 181/293/101 182/294/102 
f 140/225/41 139/221/41 183/295/103 181/293/101 
f 139/221/41 131/207/41 184/296/104 183/295/103 
f 131/207/41 132/209/41 182/294/102 184/296/104 
f 133/210/89 141/227/89 185/297/101 186/298/102 
f 141/227/89 140/225/41 187/299/103 185/297/101 
f 140/225/41 132/209/41 188/300/104 187/299/103 
f 132/209/41 133/210/89 186/298/102 188/300/104 
f 127/201/43 175/281/42 189/301/105 190/302/106 
f 175/281/42 162/284/96 191/303/107 189/301/105 
f 162/284/96 126/202/88 192/304/108 191/303/107 
f 126/202/88 127/201/43 190/302/106 192/304/108 
f 128/203/41 176/285/56 193/305/105 194/306/106 
f 176/285/56 175/281/42 195/307/107 193/305/105 
f 175/281/42 127/201/43 196/308/108 195/307/107 
f 127/201/43 128/203/41 194/306/106 196/308/108 
f 122/204/86 158/287/95 197/309/105 198/310/106 
f 158/287/95 176/285/56 199/311/107 197/309/105 
f 176/285/56 128/203/41 200/312/108 199/311/107 
f 128/203/41 122/204/86 198/310/106 200/312/108 
f 178/290/102 177/289/101 146/242/92 145/241/91 
f 177/289/101 179/291/103 147/243/93 146/242/92 
f 179/291/103 180/292/104 148/244/94 147/243/93 
f 180/292/104 178/290/102 145/241/91 148/244/94 
f 182/294/102 181/293/101 150/246/92 149/245/91 
f 181/293/101 183/295/103 151/247/93 150/246/92 
f 183/295/103 184/296/104 152/248/94 151/247/93 
f 184/296/104 182/294/102 149/245/91 152/248/94 
f 186/298/102 185/297/101 154/250/92 153/249/91 
f 185/297/101 187/299/103 155/251/93 154/250/92 
f 187/299/103 188/300/104 156/252/94 155/251/93 
f 188/300/104 186/298/102 153/249/91 156/252/94 
f 190/302/106 189/301/105 164/262/98 163/261/97 
f 189/301/105 191/303/107 165/263/99 164/262/98 
f 191/303/107 192/304/108 166/264/100 165/263/99 
f 192/304/108 190/302/106 163/261/97 166/264/100 
f 194/306/106 193/305/105 168/266/98 167/265/97 
f 193/305/105 195/307/107 169/267/99 168/266/98 
f 195/307/107 196/308/108 170/268/100 169/267/99 
f 196/308/108 194/306/106 167/265/97 170/268/100 
f 198/310/106 197/309/105 172/270/98 171/269/97 
f 197/309/105 199/311/107 173/271/99 172/270/98 
f 199/311/107 200/312/108 174/272/100 173/271/99 
f 200/312/108 198/310/106 171/269/97 174/272/100 
# 198 polygons

