# 3ds Max Wavefront OBJ Exporter v0.97b - (c)2007 guruware
# File Created: 06.06.2017 12:52:42

mtllib Groot Plafond.mtl

#
# object Plafond2
#

v  186.1809 0.0000 168.3360
v  186.1809 0.0000 89.5958
v  264.9211 0.0000 89.5958
v  264.9211 0.0000 168.3360
v  186.1809 3.9370 168.3360
v  264.9211 3.9370 168.3360
v  264.9211 3.9370 89.5958
v  186.1809 3.9370 89.5958
# 8 vertices

vn -0.5774 -0.5774 0.5774
vn -0.5774 -0.5774 -0.5774
vn 0.5774 -0.5774 -0.5774
vn 0.5774 -0.5774 0.5774
vn -0.5774 0.5774 0.5774
vn 0.5774 0.5774 0.5774
vn 0.5774 0.5774 -0.5774
vn -0.5774 0.5774 -0.5774
# 8 vertex normals

vt 0.0200 0.5862 0.0000
vt 0.0200 0.1157 0.0000
vt 0.4905 0.1157 0.0000
vt 0.4905 0.5862 0.0000
vt 0.5095 0.1157 0.0000
vt 0.9800 0.1157 0.0000
vt 0.9800 0.5862 0.0000
vt 0.5095 0.5862 0.0000
vt 0.0200 0.6163 0.0000
vt 0.4905 0.6163 0.0000
vt 0.4905 0.6398 0.0000
vt 0.0200 0.6398 0.0000
vt 0.0237 0.0200 0.0000
vt 0.4941 0.0200 0.0000
vt 0.4941 0.0435 0.0000
vt 0.0237 0.0435 0.0000
vt 0.0237 0.0642 0.0000
vt 0.4941 0.0642 0.0000
vt 0.4941 0.0877 0.0000
vt 0.0237 0.0877 0.0000
vt 0.0200 0.6678 0.0000
vt 0.4905 0.6678 0.0000
vt 0.4905 0.6913 0.0000
vt 0.0200 0.6913 0.0000
# 24 texture coords

o Plafond2
g Plafond2
usemtl wire_088088225
s 2
f 1/1/1 2/2/2 3/3/3 4/4/4 
s 4
f 5/5/5 6/6/6 7/7/7 8/8/8 
s 8
f 1/9/1 4/10/4 6/11/6 5/12/5 
s 16
f 4/13/4 3/14/3 7/15/7 6/16/6 
s 32
f 3/17/3 2/18/2 8/19/8 7/20/7 
s 64
f 2/21/2 1/22/1 5/23/5 8/24/8 
# 6 polygons

