# 3ds Max Wavefront OBJ Exporter v0.97b - (c)2007 guruware
# File Created: 06.06.2017 12:53:01

mtllib Kleine Muur.mtl

#
# object Muur_Kort
#

v  -39.0643 0.0000 -19.8211
v  -39.0643 0.0000 -39.5061
v  39.6759 0.0000 -39.5061
v  39.6759 0.0000 -19.8211
v  -39.0643 98.4252 -19.8211
v  39.6759 98.4252 -19.8211
v  39.6759 98.4252 -39.5061
v  -39.0643 98.4252 -39.5061
# 8 vertices

vn -0.5774 -0.5774 0.5774
vn -0.5774 -0.5774 -0.5774
vn 0.5774 -0.5774 -0.5774
vn 0.5774 -0.5774 0.5774
vn -0.5774 0.5774 0.5774
vn 0.5774 0.5774 0.5774
vn 0.5774 0.5774 -0.5774
vn -0.5774 0.5774 -0.5774
# 8 vertex normals

vt 0.5153 0.3364 0.0000
vt 0.5153 0.2435 0.0000
vt 0.8871 0.2435 0.0000
vt 0.8871 0.3364 0.0000
vt 0.5153 0.1317 0.0000
vt 0.8871 0.1317 0.0000
vt 0.8871 0.2247 0.0000
vt 0.5153 0.2247 0.0000
vt 0.4847 0.0200 0.0000
vt 0.4847 0.3917 0.0000
vt 0.0200 0.3917 0.0000
vt 0.0200 0.0200 0.0000
vt 0.9800 0.0200 0.0000
vt 0.9800 0.1129 0.0000
vt 0.5153 0.1129 0.0000
vt 0.5153 0.0200 0.0000
vt 0.4847 0.4110 0.0000
vt 0.4847 0.7828 0.0000
vt 0.0200 0.7828 0.0000
vt 0.0200 0.4110 0.0000
vt 0.4847 0.8021 0.0000
vt 0.4847 0.8950 0.0000
vt 0.0200 0.8950 0.0000
vt 0.0200 0.8021 0.0000
# 24 texture coords

o Muur_Kort
g Muur_Kort
usemtl wire_008061138
s 2
f 1/1/1 2/2/2 3/3/3 4/4/4 
s 4
f 5/5/5 6/6/6 7/7/7 8/8/8 
s 8
f 1/9/1 4/10/4 6/11/6 5/12/5 
s 16
f 4/13/4 3/14/3 7/15/7 6/16/6 
s 32
f 3/17/3 2/18/2 8/19/8 7/20/7 
s 64
f 2/21/2 1/22/1 5/23/5 8/24/8 
# 6 polygons

