# 3ds Max Wavefront OBJ Exporter v0.97b - (c)2007 guruware
# File Created: 06.06.2017 12:53:44

mtllib Muur met Raam Rechts.mtl

#
# object Muur_met_raam_Rechts
#

v  149.1841 0.0000 -19.8211
v  149.1841 0.0000 -39.5061
v  183.2429 0.0000 -39.5061
v  183.2429 0.0000 -19.8211
v  149.1841 98.4252 -19.8211
v  183.2429 98.4252 -19.8211
v  183.2429 98.4252 -39.5061
v  149.1841 98.4252 -39.5061
v  183.2429 32.7244 -19.8211
v  149.1841 32.7244 -19.8211
v  227.9243 0.0000 -19.8211
v  227.9243 0.0000 -39.5061
v  227.9243 32.7244 -39.5061
v  227.9243 32.7244 -19.8211
v  222.9160 0.0000 -39.5061
v  222.9160 32.7244 -39.5061
v  149.1841 32.7244 -39.5061
v  222.9160 0.0000 -19.8211
v  222.9160 98.4252 -19.8211
v  222.9160 98.4252 -39.5061
v  222.9160 32.7244 -19.8211
v  183.2429 32.7244 -39.5061
v  227.9243 98.4252 -19.8211
v  227.9243 98.4252 -39.5061
v  183.2429 91.6885 -19.8211
v  149.1841 91.6885 -19.8211
v  227.9243 91.6885 -39.5061
v  227.9243 91.6885 -19.8211
v  222.9160 91.6885 -39.5061
v  149.1841 91.6885 -39.5061
v  222.9160 91.6885 -19.8211
v  183.2429 91.6885 -39.5061
# 32 vertices

vn -0.5774 -0.5774 0.5774
vn -0.5774 -0.5774 -0.5774
vn 0.0000 -0.7071 -0.7071
vn 0.0000 -0.7071 0.7071
vn -0.5774 0.5774 0.5774
vn -0.0000 0.7071 0.7071
vn 0.0000 0.7071 -0.7071
vn -0.5774 0.5774 -0.5774
vn 0.3015 0.3015 0.9045
vn -0.7071 0.0000 0.7071
vn 0.5774 -0.5774 0.5774
vn 0.5774 -0.5774 -0.5774
vn 0.7071 0.0000 -0.7071
vn 0.7071 0.0000 0.7071
vn -0.3015 0.3015 -0.9045
vn -0.7071 0.0000 -0.7071
vn 0.0000 0.7071 0.7071
vn -0.3015 0.3015 0.9045
vn 0.3015 0.3015 -0.9045
vn 0.5774 0.5774 0.5774
vn 0.5774 0.5774 -0.5774
vn 0.3015 -0.3015 0.9045
vn -0.3015 -0.3015 -0.9045
vn -0.3015 -0.3015 0.9045
vn 0.3015 -0.3015 -0.9045
# 25 vertex normals

vt 0.0200 0.7448 0.0000
vt 0.0200 0.6509 0.0000
vt 0.1824 0.6509 0.0000
vt 0.1824 0.7448 0.0000
vt 0.0200 0.7664 0.0000
vt 0.1824 0.7664 0.0000
vt 0.1824 0.8602 0.0000
vt 0.0200 0.8602 0.0000
vt 0.9800 0.0365 0.0000
vt 0.9800 0.1989 0.0000
vt 0.8240 0.1989 0.0000
vt 0.8240 0.0365 0.0000
vt 0.4893 0.5354 0.0000
vt 0.4893 0.6293 0.0000
vt 0.3333 0.6293 0.0000
vt 0.3333 0.5354 0.0000
vt 0.4893 0.0200 0.0000
vt 0.4893 0.0439 0.0000
vt 0.3333 0.0439 0.0000
vt 0.3333 0.0200 0.0000
vt 0.4893 0.4200 0.0000
vt 0.4893 0.5138 0.0000
vt 0.3333 0.5138 0.0000
vt 0.3333 0.4200 0.0000
vt 0.3716 0.6509 0.0000
vt 0.3716 0.7448 0.0000
vt 0.3716 0.7664 0.0000
vt 0.3716 0.8602 0.0000
vt 0.9800 0.3881 0.0000
vt 0.8240 0.3881 0.0000
vt 0.4893 0.2330 0.0000
vt 0.4893 0.3954 0.0000
vt 0.3333 0.3954 0.0000
vt 0.3333 0.2330 0.0000
vt 0.3954 0.6509 0.0000
vt 0.3954 0.7448 0.0000
vt 0.3954 0.7664 0.0000
vt 0.3954 0.8602 0.0000
vt 0.9800 0.4119 0.0000
vt 0.8240 0.4119 0.0000
vt 0.5428 0.1989 0.0000
vt 0.5107 0.1989 0.0000
vt 0.5107 0.0365 0.0000
vt 0.5428 0.0365 0.0000
vt 0.0521 0.6293 0.0000
vt 0.0200 0.6293 0.0000
vt 0.0200 0.5354 0.0000
vt 0.0521 0.5354 0.0000
vt 0.0521 0.0439 0.0000
vt 0.0200 0.0439 0.0000
vt 0.0200 0.0200 0.0000
vt 0.0521 0.0200 0.0000
vt 0.0521 0.5138 0.0000
vt 0.0200 0.5138 0.0000
vt 0.0200 0.4200 0.0000
vt 0.0521 0.4200 0.0000
vt 0.5428 0.3881 0.0000
vt 0.5107 0.3881 0.0000
vt 0.0521 0.3954 0.0000
vt 0.0200 0.3954 0.0000
vt 0.0200 0.2330 0.0000
vt 0.0521 0.2330 0.0000
vt 0.5428 0.4119 0.0000
vt 0.5107 0.4119 0.0000
vt 0.3011 0.9757 0.0000
vt 0.0200 0.9757 0.0000
vt 0.0200 0.8818 0.0000
vt 0.3011 0.8818 0.0000
vt 0.7122 0.6458 0.0000
vt 0.5231 0.6458 0.0000
vt 0.5231 0.5519 0.0000
vt 0.7122 0.5519 0.0000
vt 0.4282 0.6674 0.0000
vt 0.6174 0.6674 0.0000
vt 0.6174 0.7613 0.0000
vt 0.4282 0.7613 0.0000
vt 0.5231 0.4365 0.0000
vt 0.8042 0.4365 0.0000
vt 0.8042 0.5303 0.0000
vt 0.5231 0.5303 0.0000
# 80 texture coords

o Muur_met_raam_Rechts
g Muur_met_raam_Rechts
usemtl wire_008061138
s 2
f 1/1/1 2/2/2 3/3/3 4/4/4 
s 4
f 5/5/5 6/6/6 7/7/7 8/8/8 
s 8
f 1/9/1 4/10/4 9/11/9 10/12/10 
s 16
f 11/13/11 12/14/12 13/15/13 14/16/14 
s 32
f 12/17/12 15/18/3 16/19/15 13/20/13 
s 64
f 2/21/2 1/22/1 10/23/10 17/24/16 
s 2
f 3/3/3 15/25/3 18/26/4 4/4/4 
s 4
f 6/6/6 19/27/17 20/28/7 7/7/7 
s 8
f 4/10/4 18/29/4 21/30/18 9/11/9 
s 32
f 3/31/3 2/32/2 17/33/16 22/34/19 
f 15/18/3 3/31/3 22/34/19 16/19/15 
s 2
f 15/25/3 12/35/12 11/36/11 18/26/4 
s 4
f 19/27/17 23/37/20 24/38/21 20/28/7 
s 8
f 18/29/4 11/39/11 14/40/14 21/30/18 
f 25/41/22 6/42/6 5/43/5 26/44/10 
s 16
f 27/45/13 24/46/21 23/47/20 28/48/14 
s 32
f 29/49/23 20/50/7 24/51/21 27/52/13 
s 64
f 26/53/10 5/54/5 8/55/8 30/56/16 
s 8
f 31/57/24 19/58/17 6/42/6 25/41/22 
s 32
f 30/59/16 8/60/8 7/61/7 32/62/25 
f 32/62/25 7/61/7 20/50/7 29/49/23 
s 8
f 28/63/14 23/64/20 19/58/17 31/57/24 
f 9/11/9 25/41/22 26/44/10 10/12/10 
s 16
f 13/15/13 27/45/13 28/48/14 14/16/14 
s 32
f 16/19/15 29/49/23 27/52/13 13/20/13 
s 64
f 10/23/10 26/53/10 30/56/16 17/24/16 
s 32
f 17/33/16 30/59/16 32/62/25 22/34/19 
s 8
f 14/40/14 28/63/14 31/57/24 21/30/18 
s 1
f 22/65/19 32/66/25 25/67/22 9/68/9 
s 2
f 16/69/15 22/70/19 9/71/9 21/72/18 
f 32/73/25 29/74/23 31/75/24 25/76/22 
s 1
f 29/77/23 16/78/15 21/79/18 31/80/24 
# 32 polygons

