# 3ds Max Wavefront OBJ Exporter v0.97b - (c)2007 guruware
# File Created: 06.06.2017 12:53:19

mtllib Muur met Deurgat.mtl

#
# object Muur_met_deur
#

v  55.1862 0.0000 -19.8211
v  55.1862 0.0000 -39.5061
v  75.5507 0.0000 -39.5061
v  75.5507 0.0000 -19.8211
v  55.1862 98.4252 -19.8211
v  75.5507 98.4252 -19.8211
v  75.5507 98.4252 -39.5061
v  55.1862 98.4252 -39.5061
v  75.5507 78.5311 -19.8211
v  55.1862 78.5311 -19.8211
v  133.9264 0.0000 -19.8211
v  133.9264 0.0000 -39.5061
v  133.9264 78.5311 -39.5061
v  133.9264 78.5311 -19.8211
v  114.7780 0.0000 -39.5061
v  114.7780 78.5311 -39.5061
v  55.1862 78.5311 -39.5061
v  114.7780 98.4252 -19.8211
v  114.7780 98.4252 -39.5061
v  75.5507 78.5311 -39.5061
v  114.7780 0.0000 -19.8211
v  133.9264 98.4252 -19.8211
v  133.9264 98.4252 -39.5061
v  114.7780 78.5311 -19.8211
# 24 vertices

vn -0.5774 -0.5774 0.5774
vn -0.5774 -0.5774 -0.5774
vn 0.5774 -0.5774 -0.5774
vn 0.5774 -0.5774 0.5774
vn -0.5774 0.5774 0.5774
vn 0.0000 0.7071 0.7071
vn 0.0000 0.7071 -0.7071
vn -0.5774 0.5774 -0.5774
vn 0.3015 -0.3015 0.9045
vn -0.7071 0.0000 0.7071
vn 0.7071 0.0000 -0.7071
vn 0.7071 0.0000 0.7071
vn -0.3015 -0.3015 -0.9045
vn -0.7071 0.0000 -0.7071
vn -0.0000 0.7071 0.7071
vn -0.0000 0.7071 -0.7071
vn 0.3015 -0.3015 -0.9045
vn 0.5774 0.5774 0.5774
vn 0.5774 0.5774 -0.5774
vn -0.3015 -0.3015 0.9045
# 20 vertex normals

vt 0.1770 0.6773 0.0000
vt 0.1770 0.5759 0.0000
vt 0.2819 0.5759 0.0000
vt 0.2819 0.6773 0.0000
vt 0.5632 0.8786 0.0000
vt 0.6681 0.8786 0.0000
vt 0.6681 0.9800 0.0000
vt 0.5632 0.9800 0.0000
vt 0.5269 0.0200 0.0000
vt 0.5269 0.1249 0.0000
vt 0.1225 0.1249 0.0000
vt 0.1225 0.0200 0.0000
vt 0.9168 0.1295 0.0000
vt 0.9168 0.2309 0.0000
vt 0.5123 0.2309 0.0000
vt 0.5123 0.1295 0.0000
vt 0.5269 0.4493 0.0000
vt 0.5269 0.5479 0.0000
vt 0.1225 0.5479 0.0000
vt 0.1225 0.4493 0.0000
vt 0.5269 0.8786 0.0000
vt 0.5269 0.9800 0.0000
vt 0.1225 0.9800 0.0000
vt 0.1225 0.8786 0.0000
vt 0.8701 0.8786 0.0000
vt 0.8701 0.9800 0.0000
vt 0.5269 0.7499 0.0000
vt 0.5269 0.8548 0.0000
vt 0.1225 0.8548 0.0000
vt 0.1225 0.7499 0.0000
vt 0.5501 0.4011 0.0000
vt 0.6487 0.4011 0.0000
vt 0.6487 0.5025 0.0000
vt 0.5501 0.5025 0.0000
vt 0.9687 0.8786 0.0000
vt 0.9687 0.9800 0.0000
vt 0.5269 0.3269 0.0000
vt 0.5269 0.4255 0.0000
vt 0.1225 0.4255 0.0000
vt 0.1225 0.3269 0.0000
vt 0.0200 0.1249 0.0000
vt 0.0200 0.0200 0.0000
vt 0.4099 0.2309 0.0000
vt 0.4099 0.1295 0.0000
vt 0.0200 0.5479 0.0000
vt 0.0200 0.4493 0.0000
vt 0.0200 0.9800 0.0000
vt 0.0200 0.8786 0.0000
vt 0.0200 0.3269 0.0000
vt 0.0200 0.8548 0.0000
vt 0.0200 0.7499 0.0000
vt 0.0200 0.4255 0.0000
vt 0.9677 0.8486 0.0000
vt 0.5632 0.8486 0.0000
vt 0.5632 0.7472 0.0000
vt 0.9677 0.7472 0.0000
vt 0.9545 0.3667 0.0000
vt 0.5501 0.3667 0.0000
vt 0.5501 0.2653 0.0000
vt 0.9545 0.2653 0.0000
vt 0.1718 0.1424 0.0000
vt 0.3738 0.1424 0.0000
vt 0.3738 0.2438 0.0000
vt 0.1718 0.2438 0.0000
# 64 texture coords

o Muur_met_deur
g Muur_met_deur
usemtl wire_008061138
s 2
f 1/1/1 2/2/2 3/3/3 4/4/4 
s 4
f 5/5/5 6/6/6 7/7/7 8/8/8 
s 8
f 1/9/1 4/10/4 9/11/9 10/12/10 
s 16
f 11/13/4 12/14/3 13/15/11 14/16/12 
s 32
f 12/17/3 15/18/2 16/19/13 13/20/11 
s 64
f 2/21/2 1/22/1 10/23/10 17/24/14 
s 4
f 6/6/6 18/25/15 19/26/16 7/7/7 
s 32
f 3/27/3 2/28/2 17/29/14 20/30/17 
s 2
f 15/31/2 12/32/3 11/33/4 21/34/1 
s 4
f 18/25/15 22/35/18 23/36/19 19/26/16 
s 8
f 21/37/1 11/38/4 14/39/12 24/40/20 
f 9/11/9 6/41/6 5/42/5 10/12/10 
s 16
f 13/15/11 23/43/19 22/44/18 14/16/12 
s 32
f 16/19/13 19/45/16 23/46/19 13/20/11 
s 64
f 10/23/10 5/47/5 8/48/8 17/24/14 
s 8
f 24/40/20 18/49/15 6/41/6 9/11/9 
s 32
f 17/29/14 8/50/8 7/51/7 20/30/17 
f 20/30/17 7/51/7 19/45/16 16/19/13 
s 8
f 14/39/12 22/52/18 18/49/15 24/40/20 
s 1
f 3/53/3 20/54/17 9/55/9 4/56/4 
f 21/57/1 24/58/20 16/59/13 15/60/2 
s 2
f 20/61/17 16/62/13 24/63/20 9/64/9 
# 22 polygons

